<?xml version="1.0" encoding="UTF-8"?>
<svg id="Layer_1" data-name="Layer 1" xmlns="http://www.w3.org/2000/svg" viewBox="0 0 1742.29 600">
  <defs>
    <style>
      .cls-1 {
        fill: #2e2c70;
      }

      .cls-2 {
        fill: #cf9e2d;
      }
    </style>
  </defs>
  <path class="cls-2" d="M1661.27,232.29l-67.28,97.85,37.93.87c-7.47,87.41-57.77,147.92-114.33,188.67-.14.1-.29.21-.43.31-16.25,11.68-33.05,21.72-49.56,30.36-144.95,73.29-304.87,11.12-304.87,11.12,171.82,95.33,373.08-18.57,373.08-18.57h0c147.57-81.04,157.59-211.23,157.59-211.23l35.99.38-68.12-99.75Z"/>
  <path class="cls-1" d="M665.06,243.75l-3.37-2.52c-10.47-7.95-12.38-11.82-12.38-16.57,0-6.94,5.24-11.43,13.35-11.43,7.17,0,10.49,3.16,12.37,5.54,2.42,2.99,2.92,6.54,2.92,7.33,0,2.62,1.2,3.16,2.2,3.16,2.32,0,2.32-2.99,2.32-4.61,0-6.64.24-10.28.38-12.45.06-.91.1-1.54.1-2.01,0-1.86-1.85-2.27-2.42-2.4-3.6-.97-8.71-2.08-16.28-2.08-16.98,0-28.83,9.77-28.83,23.77,0,10.58,5.45,19.36,18.22,29.34l5.55,4.34c9.52,7.46,11.43,12.61,11.43,18.5s-5.31,12.75-15.16,12.75c-4.81,0-13.32-1.49-16.29-11.46-.61-2.1-1.04-4.51-1.04-5.87,0-2.52-1.2-3.04-2.2-3.04-2.17,0-2.36,2.95-2.44,4.06l-.02.41c-.16,2.51-.58,9.18-.58,15.44,0,3.01.57,3.99,2.88,5.01,5.11,2.26,10.49,3.22,18,3.22,7.89,0,14.34-1.67,19.7-5.1,10.25-6.69,11.78-16.53,11.78-21.8,0-11.93-5.47-20.48-20.17-31.53"/>
  <path class="cls-1" d="M781.25,276.09c-1.94,0-2.24,1.64-2.53,3.19-.46,2.05-1.97,5.39-3.88,7.52-4.68,5.39-11.1,6.41-21.31,6.41-14.91,0-36.98-13.32-36.98-41.92,0-14.06,3.42-23.74,10.76-30.48,5.49-4.99,12.27-7.21,21.99-7.21s19.71,2.87,23.76,7.16c2.65,2.76,4.3,6.66,4.42,10.4,0,1,0,3.65,2.2,3.65s2.34-2.32,2.43-3.67c.13-1.27.16-3.64.19-6.16.03-2.45.06-4.98.17-6.91.15-2.52.33-4.05.46-5.06.09-.73.15-1.22.15-1.63,0-.51-.2-2.21-2.7-2.43-1.84-.18-3.77-.57-5.81-.97-1.96-.39-3.99-.78-6.22-1.08-5.27-.69-9.91-1.22-17.6-1.22-16.74,0-29.06,4.14-38.76,13.03-13.39,12.27-14.43,28.94-14.43,33.76,0,15.18,5.14,27.4,15.29,36.3h0c10.52,9.13,23.86,13.39,41.99,13.39,7.23,0,16.83-.75,22.07-2.85,2.29-.94,3.01-1.75,3.71-4.13,1.2-4.08,2.69-14.66,2.69-16.31,0-2.6-1.59-2.8-2.08-2.8"/>
  <path class="cls-1" d="M895.98,296.34c-1.76,0-4.35-.24-6.02-.48-2.78-.37-3.48-2.18-3.85-5.64-.59-5.12-.59-14.65-.59-25.68v-21.21c0-18.36,0-21.66.24-25.5.23-4.09,1.08-5.48,3.63-5.95,1.44-.24,2.47-.34,3.33-.34.78,0,3.16,0,3.16-2.08s-2.47-2.07-3.52-2.07c-2.64,0-6.19.11-9.32.21-2.43.08-4.6.15-5.87.15-1.34,0-3.42-.06-5.86-.13-3.41-.11-7.67-.23-11.49-.23-1.06,0-3.52,0-3.52,2.07,0,1.38,1.02,2.08,3.04,2.08,1.85,0,3.68.14,4.49.34,3.26.69,4.17,1.92,4.4,5.96.24,3.83.24,7.13.24,25.49v2.38h-45.5v-2.38c0-18.36,0-21.66.24-25.5.23-4.09,1.08-5.48,3.63-5.95,1.44-.24,2.47-.34,3.33-.34.78,0,3.16,0,3.16-2.08s-2.47-2.07-3.52-2.07c-2.64,0-6.19.11-9.32.21-2.43.08-4.6.15-5.87.15-1.34,0-3.42-.06-5.86-.13-3.41-.11-7.67-.23-11.49-.23-1.06,0-3.52,0-3.52,2.07,0,1.38,1.02,2.08,3.04,2.08,1.85,0,3.68.14,4.49.34,3.26.69,4.16,1.92,4.4,5.96.24,3.83.24,7.13.24,25.49v21.21c0,11.02,0,20.55-.6,25.53-.49,3.58-1.05,5.46-2.73,5.8-.89.19-2.29.46-4.12.46-2.42,0-2.93,1.06-2.93,1.95,0,1,.59,2.19,3.4,2.19s6.4-.12,9.55-.21c2.37-.08,4.45-.15,5.63-.15,1.33,0,3.32.06,5.73.13,3.71.11,8.34.23,13.08.23,3.07,0,3.4-1.54,3.4-2.19,0-.59-.29-1.95-2.92-1.95-1.76,0-4.35-.24-6.02-.48-2.78-.37-3.48-2.18-3.85-5.64-.59-5.12-.59-14.65-.59-25.68v-10.34h45.5v10.34c0,11.02,0,20.55-.6,25.53-.49,3.58-1.05,5.46-2.72,5.8-.9.19-2.3.46-4.13.46-2.42,0-2.93,1.06-2.93,1.95,0,1.46,1.19,2.19,3.53,2.19,2.66,0,6.26-.12,9.39-.21,2.38-.08,4.49-.15,5.68-.15,1.33,0,3.32.06,5.72.13,3.71.11,8.33.23,13.08.23,3.07,0,3.4-1.54,3.4-2.19,0-.59-.29-1.95-2.92-1.95"/>
  <path class="cls-1" d="M958.29,205.7c-34.88,0-50.77,25.01-50.77,48.24s15.51,48.24,49.56,48.24c29.97,0,50.89-20.73,50.89-50.41s-19.04-46.07-49.68-46.07M962.14,294.17c-21.2,0-36.01-18.08-36.01-43.97,0-31.96,17.95-36.73,28.66-36.73,20.21,0,34.33,17.59,34.33,42.76,0,34.24-18.87,37.94-26.97,37.94"/>
  <path class="cls-1" d="M1068.8,205.7c-34.88,0-50.77,25.01-50.77,48.24s15.51,48.24,49.56,48.24c29.97,0,50.89-20.73,50.89-50.41s-19.04-46.07-49.68-46.07M1072.66,294.17c-21.2,0-36.01-18.08-36.01-43.97,0-31.96,17.95-36.73,28.66-36.73,20.21,0,34.33,17.59,34.33,42.76,0,34.24-18.87,37.94-26.97,37.94"/>
  <path class="cls-1" d="M1192.21,279.71c-2.01,0-2.23,1.95-2.32,2.7-.22,2.09-1.59,5.26-2.87,6.66-2.64,2.85-6.81,3.06-13.38,3.06-9.42,0-12.16-.85-13.93-2.42-2.19-1.87-2.19-10.64-2.19-25.16v-21.21c0-18.36,0-21.66.24-25.49.24-4.09,1.08-5.48,3.63-5.95,1.44-.24,3.31-.34,4.54-.34.78,0,3.16,0,3.16-2.08s-2.47-2.07-3.52-2.07c-2.64,0-6.58.12-10.03.21-2.69.08-5.1.15-6.36.15-1.39,0-3.59-.07-6.1-.15-3.33-.1-7.18-.22-10.41-.22-1.18,0-3.65,0-3.65,2.07,0,1.38,1.03,2.08,3.05,2.08,1.53,0,2.89.12,3.77.33,3.25.69,4.16,1.92,4.4,5.97.24,3.83.24,7.13.24,25.49v21.21c0,11.02,0,20.55-.6,25.54-.49,3.58-1.05,5.46-2.72,5.8-.9.19-2.3.46-4.13.46-2.41,0-2.92,1.06-2.92,1.95,0,1,.59,2.19,3.4,2.19,1.17,0,2.52-.06,3.91-.11,1.47-.06,2.99-.13,4.45-.13,2.87-.12,5.5-.12,6.82-.12h0c4.59,0,8.84.11,14.68.36l4.19.1c4.52.13,9.65.26,16.2.26s7.62-.6,8.55-3.98c.99-3.6,1.84-12.71,1.84-14.13,0-1.13,0-3.04-1.95-3.04"/>
  <path class="cls-1" d="M1284.77,205.7c-34.88,0-50.77,25.01-50.77,48.24s15.51,48.24,49.56,48.24c29.97,0,50.89-20.73,50.89-50.41s-19.04-46.07-49.68-46.07M1288.63,294.17c-21.2,0-36.01-18.08-36.01-43.97,0-31.96,17.95-36.73,28.66-36.73,20.21,0,34.33,17.59,34.33,42.76,0,34.24-18.87,37.94-26.97,37.94"/>
  <path class="cls-1" d="M1404.08,206.43c-.61,0-1.12.26-1.58.48-.21.1-.43.21-.63.28-.88.26-1.94.31-3.56.38l-1.15.06c-1.75.08-13.33.12-31.78.12-1.39,0-3.55-.08-6.03-.18l-1.56-.06c-1.56,0-3.21-.03-4.87-.06-1.66-.03-3.32-.06-4.89-.06-1.13,0-3.77,0-3.77,2.19,0,.74.39,1.96,3.04,1.96,1.85,0,3.68.13,4.49.33,3.25.69,4.16,1.92,4.4,5.96.24,3.83.24,7.13.24,25.49v21.21c0,11.48,0,20.55-.6,25.53-.49,3.58-1.05,5.46-2.73,5.8-.89.19-2.29.46-4.13.46-2.44,0-2.8,1.22-2.8,1.96,0,2.19,2.47,2.19,3.53,2.19,2.51,0,5.94-.11,9.03-.2,2.54-.09,4.86-.16,6.27-.16,1.22,0,3.11.05,5.43.12,3.68.11,8.25.24,12.89.24.9,0,3.64,0,3.64-2.19,0-1.3-1.02-1.96-3.04-1.96-1.67,0-4.28-.24-5.89-.47-2.79-.37-3.49-2.23-3.85-5.76-.6-5-.6-14.08-.6-25.55v-9.76s0-.06,0-.09c4.52,0,14.93.04,17.56.35,3.92.5,5.08,2.95,5.34,3.67.47,1.39.67,2.73.67,3.42,0,1.98,1.01,2.68,1.95,2.68,2.19,0,2.19-2.31,2.19-3.28,0-.83.25-6.36.48-8.71.2-2.14.49-4.04.7-5.4.16-1.08.27-1.84.27-2.16,0-1.54-.88-2.08-1.71-2.08-1.08,0-1.6.65-2.06,1.24l-.29.35c-.9,1.16-2.14,1.67-4.47,1.79-1.66.12-3.29.12-5.36.12l-15.28.12v-30.22c0-.7.09-.73.08-.7l18.55.36c4.16.11,6.39,1.66,7.07,3.02.64,1.5.64,3.25.65,4.28.08.92.26,2.83,2.19,2.83s2.11-1.92,2.18-2.51c.16-.96.31-3.98.44-6.63.07-1.49.13-2.76.17-3.19.2-1.75.48-2.95.69-3.84.16-.71.28-1.23.28-1.7,0-1.17-.8-2.08-1.83-2.08"/>
  <path class="cls-1" d="M669.17,159.9c-1.77,0-4.36-.23-6.02-.47-2.94-.4-3.62-1.94-3.97-5.02-.47-5.13-.47-14.48-.47-26.3v-21.21c0-18.36,0-21.66.24-25.5.23-4.09,1.08-5.48,3.63-5.95,1.38-.23,2.3-.34,3.45-.34,1.94,0,2.92-.74,2.92-2.2,0-1.95-2.65-1.95-3.53-1.95-2.54,0-5.85.11-8.82.21-2.38.08-4.54.15-5.89.15-1.62,0-4.13-.08-6.81-.16-3.09-.1-6.41-.2-8.86-.2-1.26,0-3.88,0-3.88,1.95,0,1.46.98,2.2,2.92,2.2,1.6,0,3.01.15,4.12.46,1.57.36,3.06,1.31,3.33,5.85.24,3.83.24,7.13.24,25.49v21.21c0,11.82,0,21.15-.6,26.17-.37,3.52-1.05,4.82-2.72,5.16-1.39.31-2.74.46-4.13.46-2.41,0-2.92,1.07-2.92,1.96,0,1,.59,2.2,3.4,2.2s6.4-.12,9.55-.22c2.36-.07,4.45-.14,5.63-.14,1.27,0,3.19.06,5.53.13,3.75.1,8.41.24,13.28.24,3.04,0,3.28-1.68,3.28-2.2,0-.59-.29-1.96-2.92-1.96"/>
  <path class="cls-1" d="M780.53,70.96c-4.03,0-7.41.16-9.64.28-1.01.05-1.76.08-2.17.08-.98,0-2.44-.05-4.23-.12-2.9-.11-6.5-.24-10.36-.24-1.55,0-4.13,0-4.13,2.08,0,1.38.98,2.07,2.92,2.07,1.54,0,4.39,0,6.01.64,2.31.96,3.36,2.63,3.49,9.96l1.16,52.27c-1.56-1.6-4.38-4.56-7.52-7.85-5.86-6.15-13.16-13.8-17.87-18.51-17.94-17.81-36.25-37.13-37.34-38.31-.4-.43-.77-.84-1.11-1.21-1.49-1.65-2.57-2.84-4.07-2.84-2.56,0-2.56,3.7-2.56,5.08l-1.08,70.99c-.13,10.68-.69,13.3-3.02,14.01-1.72.49-3.97.56-5.15.56-2.41,0-2.92,1.07-2.92,1.96,0,2.2,2.46,2.2,3.64,2.2,4.45,0,8.56-.18,11.02-.29.99-.04,1.69-.08,2-.08.79,0,1.9.04,3.32.1,2.75.11,6.52.27,11.62.27,1.03,0,3.77,0,3.77-2.2,0-1.3-1.03-1.96-3.04-1.96-1.72,0-3.96-.08-5.94-.78-1.52-.53-3.3-2.43-3.56-12.47l-1.26-48.04c.2.22.42.46.66.71,4.72,5.1,15.76,17.03,26.64,27.82,5.08,5.03,10.63,10.61,15.94,15.96,7.76,7.8,15.1,15.18,19.61,19.47,1.49,1.49,3.09,2.94,4.8,2.94,2.56,0,2.56-3.31,2.56-4.71l1.33-76.05c.13-7.09,1.26-8.61,3.71-9.3,1.33-.33,2.18-.33,3.38-.33,2.75,0,3.16-1.3,3.16-2.07,0-2.08-2.54-2.08-3.76-2.08"/>
  <path class="cls-1" d="M871.4,70.11c-.45,0-1.04.13-2.12.35l-1.36.28c-1.74.23-4.37.58-8.1.58h-47.73c-3.82,0-8.39-.23-11.97-.6-1.69-.14-2.73-.59-3.56-.95-.61-.27-1.13-.5-1.7-.5-1.71,0-2.15,1.92-2.41,3.04-.19.79-2.56,11.99-2.56,14.1,0,.73,0,2.93,2.08,2.93,1.74,0,2.15-1.66,2.28-2.2.16-.62.62-1.97,1.91-3.9,1.47-2.16,3.82-2.82,10.9-3.06l16.94-.46v48.41c0,11.03,0,20.55-.6,25.57-.4,3.84-1.15,5.45-2.73,5.76-1.41.31-2.72.46-4.13.46-2.41,0-2.92,1.07-2.92,1.96,0,1,.59,2.2,3.4,2.2s6.4-.12,9.55-.22c2.36-.08,4.45-.15,5.64-.15,1.32,0,3.3.06,5.7.13,3.74.1,8.39.24,13.23.24,3.04,0,3.28-1.68,3.28-2.2,0-.59-.29-1.96-2.92-1.96-1.77,0-4.36-.23-6.02-.47-2.78-.37-3.47-2.19-3.85-5.64-.6-5.12-.6-14.65-.6-25.68v-48.41l14.17.34c8.15.18,12.99,2.31,13.26,5.85l.12,1.3c.09,1.33.22,3.34,2.31,3.34,1.8,0,2-2.05,2.08-2.93,0-1.64.1-4.71.19-7.63.08-2.64.16-5.14.16-6.35,0-1.49,0-3.53-1.96-3.53"/>
  <path class="cls-1" d="M941.06,143.75c-1.82,0-2.11,1.57-2.31,2.63-.8,4.7-2.12,6.92-4.86,8.19-2.94,1.36-7.93,1.36-10.91,1.36-12.07,0-13.26-1.62-13.48-9.17-.08-2.47-.04-8.68-.02-13.68,0-2.01.02-3.78.02-4.97v-9.52c0-.09,0-.16,0-.21,3.61,0,14.66.13,16.73.35,4.44.48,5.47,2.27,5.89,3.94.24,1.04.31,2.12.38,3.08.03.4.05.78.08,1.04,0,1.28.79,2.08,2.08,2.08,2.07,0,2.07-2.31,2.07-3.28,0-.46.11-2.07.22-3.83.1-1.5.21-3.1.26-4.17.32-4.04.64-6.27.81-7.47.1-.71.15-1.13.15-1.4,0-1.19-.72-1.96-1.83-1.96-1.02,0-1.68.76-2.51,1.72l-.16.17c-.86.96-2.53,1.27-5.13,1.49-1.72.15-8.6.34-19.04.23,0-.08-.01-.18-.01-.33v-30.49c0-.09,0-.16.01-.21,2.95,0,14.93.25,16.84.47,5.69.68,6.57,1.91,7.28,3.73.51,1.22.65,3.07.65,3.96,0,2.21,1.13,2.67,2.08,2.67.79,0,1.82-.37,2.18-2.16.16-.98.32-3.53.45-5.57.07-1.09.13-2.02.17-2.48.24-3.68.59-5.5.79-6.58.11-.61.18-1,.18-1.32,0-1.92-1.31-2.07-1.71-2.07-.53,0-1.05.17-1.51.32-.21.07-.42.14-.66.19-1.04.26-3.38.52-4.99.7-2.04.11-21.72.12-30.08.12-1.39,0-3.54-.08-6.02-.18l-1.57-.06c-1.47,0-3.06-.03-4.68-.06-1.69-.02-3.42-.06-5.08-.06-1.18,0-3.64,0-3.64,2.07,0,1.38,1.02,2.08,3.04,2.08,1.85,0,3.68.13,4.49.33,3.26.7,4.17,1.92,4.4,5.97.24,3.83.24,7.13.24,25.49v21.21c0,11.03,0,20.55-.6,25.53-.49,3.58-1.05,5.46-2.73,5.8-1.39.31-2.74.46-4.12.46-2.42,0-2.92,1.07-2.92,1.96,0,1,.59,2.2,3.4,2.2,1.18,0,2.52-.05,3.92-.12,1.46-.06,2.98-.12,4.44-.13,2.87-.12,5.5-.12,6.82-.12h0c3.36,0,6.97.11,12.52.36l3.57.1c4.54.12,10.2.27,17.31.27,4.54,0,6.42,0,7.47-3.89.62-2.51,1.59-10.79,1.59-13.62,0-1.18,0-3.16-1.96-3.16"/>
  <path class="cls-1" d="M1146.33,73.03c0-2.08-2.54-2.08-3.76-2.08-4.03,0-7.41.16-9.64.28-1.01.05-1.75.08-2.17.08-.98,0-2.44-.05-4.23-.12-2.9-.11-6.51-.24-10.36-.24-1.55,0-4.13,0-4.13,2.08,0,1.38.98,2.08,2.92,2.08,1.53,0,4.39,0,6.01.64,2.32.96,3.37,2.63,3.49,9.95l1.16,52.27c-1.57-1.6-4.38-4.55-7.52-7.85-5.87-6.15-13.17-13.8-17.87-18.51-17.95-17.81-36.26-37.13-37.34-38.3-.41-.43-.77-.84-1.11-1.21-1.49-1.65-2.57-2.84-4.07-2.84-2.55,0-2.55,3.7-2.55,5.07l-1.09,71c-.12,10.67-.69,13.29-3.02,14-.87.25-1.87.39-2.8.47-.53-.06-1.11-.15-1.8-.27-1.77-.35-6.48-1.28-12.84-7.89-6.11-6.42-13.05-15.17-21.83-26.26l-3.66-4.61c10.87-9.02,15.52-17.18,15.52-27.15,0-9.08-5.65-15.31-8.63-17.33-6.88-4.72-15.35-5.36-22.73-5.36-1.83,0-4.96.09-8.16.17-3.33.09-6.75.18-8.83.18-.97,0-2.69-.05-4.81-.12-3.46-.11-7.77-.24-11.7-.24-1.18,0-3.64,0-3.64,2.08,0,1.38,1.02,2.08,3.04,2.08,1.85,0,3.68.13,4.49.33,3.26.7,4.17,1.92,4.4,5.96.24,3.83.24,7.13.24,25.49v21.21c0,11.03,0,20.55-.6,25.54-.49,3.58-1.05,5.45-2.73,5.8-1.39.31-2.74.46-4.12.46-2.42,0-2.92,1.06-2.92,1.96,0,1,.59,2.2,3.4,2.2s6.7-.13,9.84-.24c2.14-.07,3.94-.13,4.87-.13.61,0,2.01.04,3.88.09,3.66.11,9.19.27,13.84.27,2.81,0,3.4-1.2,3.4-2.2,0-.91-.63-1.96-2.44-1.96-1.39,0-4.03-.24-5.77-.47-2.8-.38-3.47-2.15-3.85-5.77-.59-5-.59-14.58-.59-25.67l-.05-1.67,10.51.25c.77,0,1.09.11,1.42.49.87,1,3.11,4.18,5.7,7.88,1.95,2.78,4.13,5.88,6.18,8.69,7.1,9.76,11.65,15.23,16.84,18.01,3.39,1.83,6.64,2.41,13.37,2.41h11.45c.18,0,.46,0,.76-.03,3.23-.06,6.09-.18,7.97-.26.99-.04,1.69-.07,2-.07.79,0,1.89.04,3.32.1,2.75.11,6.51.27,11.62.27,1.03,0,3.76,0,3.76-2.2,0-1.3-1.02-1.96-3.04-1.96-1.73,0-3.96-.09-5.94-.79-1.52-.53-3.3-2.43-3.56-12.47l-1.26-48.04c.2.22.42.46.65.71,4.72,5.1,15.77,17.03,26.65,27.81,5.08,5.03,10.63,10.61,15.94,15.96,7.76,7.8,15.09,15.18,19.61,19.47,1.49,1.49,3.08,2.94,4.79,2.94,2.56,0,2.56-3.31,2.56-4.71l1.33-76.05c.13-7.09,1.26-8.6,3.71-9.3,1.33-.33,2.19-.33,3.38-.33,2.76,0,3.16-1.3,3.16-2.08M1007.43,99.67c0,10.76-4.2,15.44-6.7,17.28-1.97,1.42-3.32,1.86-7.98,1.86-3.37,0-6.67-.43-8.77-1.12-.36-.16-.48-.21-.48-1.26v-36.64c0-.63.05-.65.37-.74,1.32-.4,4.12-.44,6.1-.44,6.49,0,17.46,4.44,17.46,21.06"/>
  <path class="cls-1" d="M1241.15,159.9c-1.16,0-2.95-.08-4.83-.46-1.67-.39-5.13-1.22-9.92-12.56-4.19-9.94-11.69-28.47-18.31-44.81-5.51-13.59-10.26-25.31-11.59-28.35-1.13-2.61-2.08-4.46-3.92-4.46-1.95,0-2.85,1.96-4.29,5.44l-30.26,74.73c-2.52,6.3-4.67,9.61-9.44,10.23-.91.11-2.54.23-3.61.23-2.12,0-2.44,1.23-2.44,1.96,0,2.2,2.3,2.2,3.28,2.2,4.31,0,8.69-.17,11.6-.28,1.28-.04,2.21-.08,2.63-.08,1.84,0,4.03.09,6.25.18,2.28.09,4.57.18,6.52.18.75,0,3.04,0,3.04-2.2,0-1.96-1.89-1.96-2.8-1.96h-1.81c-3.37,0-3.83-1.32-3.83-2.75,0-1.26.54-4,1.74-6.99l6.53-16.56c.05-.16.09-.25.09-.29h26.93l.28.21,9.65,24.85c.16.38.17.73.04,1-.13.26-.33.39-.31.4-.77.08-2.58.26-2.58,2.07,0,1.71,1.86,1.81,4.03,1.92l.55.03c9.65.25,18.53.25,22.8.25,3.79,0,6.53,0,6.53-2.2,0-1.96-1.92-1.96-2.55-1.96M1199.85,125.31h-21l10.64-28.33,10.36,28.33ZM1200.41,125.32s.02,0,.03,0l-.03.99v-.98Z"/>
  <path class="cls-1" d="M1308.75,70.11c-.45,0-1.04.13-2.11.35l-1.36.28c-1.74.23-4.37.58-8.1.58h-47.73c-3.82,0-8.39-.23-11.97-.6-1.69-.14-2.72-.59-3.56-.95-.61-.27-1.13-.5-1.7-.5-1.71,0-2.15,1.92-2.41,3.04-.19.79-2.56,11.99-2.56,14.1,0,.73,0,2.93,2.08,2.93,1.73,0,2.15-1.66,2.29-2.2.15-.62.61-1.97,1.9-3.9,1.48-2.16,3.82-2.82,10.9-3.06l16.94-.46v48.41c0,11.03,0,20.55-.6,25.57-.4,3.84-1.15,5.45-2.73,5.76-1.41.31-2.72.46-4.12.46-2.41,0-2.92,1.07-2.92,1.96,0,1,.59,2.2,3.4,2.2s6.4-.12,9.55-.22c2.37-.08,4.45-.15,5.64-.15,1.33,0,3.3.06,5.7.13,3.74.1,8.4.24,13.23.24,3.04,0,3.28-1.68,3.28-2.2,0-.59-.29-1.96-2.92-1.96-1.77,0-4.36-.23-6.02-.47-2.78-.37-3.47-2.19-3.85-5.64-.6-5.12-.6-14.65-.6-25.68v-48.41l14.17.34c8.16.18,12.99,2.31,13.26,5.85l.12,1.3c.09,1.33.22,3.34,2.32,3.34,1.79,0,1.99-2.05,2.08-2.93,0-1.64.1-4.71.19-7.63.08-2.64.16-5.14.16-6.35,0-1.49,0-3.53-1.96-3.53"/>
  <path class="cls-1" d="M1357.08,159.9c-1.77,0-4.36-.23-6.02-.47-2.94-.4-3.62-1.94-3.97-5.02-.48-5.13-.48-14.48-.48-26.3v-21.21c0-18.36,0-21.66.24-25.5.24-4.09,1.08-5.48,3.63-5.95,1.39-.23,2.3-.34,3.45-.34,1.94,0,2.92-.74,2.92-2.2,0-1.95-2.65-1.95-3.52-1.95-2.54,0-5.85.11-8.82.21-2.38.08-4.54.15-5.89.15-1.62,0-4.13-.08-6.81-.16-3.09-.1-6.41-.2-8.86-.2-1.26,0-3.88,0-3.88,1.95,0,1.46.98,2.2,2.92,2.2,1.6,0,3.01.15,4.12.46,1.57.36,3.06,1.31,3.33,5.85.24,3.83.24,7.13.24,25.49v21.21c0,11.82,0,21.15-.6,26.17-.37,3.52-1.05,4.82-2.72,5.16-1.39.31-2.74.46-4.12.46-2.42,0-2.92,1.07-2.92,1.96,0,1,.59,2.2,3.4,2.2s6.4-.12,9.55-.22c2.36-.07,4.45-.14,5.63-.14,1.27,0,3.19.06,5.53.13,3.74.1,8.41.24,13.27.24,3.05,0,3.28-1.68,3.28-2.2,0-.59-.28-1.96-2.92-1.96"/>
  <path class="cls-1" d="M1419.39,69.27c-34.88,0-50.77,25.01-50.77,48.24s15.51,48.24,49.56,48.24c29.97,0,50.89-20.73,50.89-50.41s-19.04-46.07-49.68-46.07M1423.25,157.74c-21.2,0-36.01-18.08-36.01-43.96,0-31.97,17.95-36.74,28.66-36.74,20.21,0,34.33,17.59,34.33,42.76,0,34.24-18.87,37.94-26.97,37.94"/>
  <path class="cls-1" d="M1580.31,73.03c0-2.08-2.54-2.08-3.76-2.08-4.03,0-7.41.16-9.64.28-1.01.05-1.75.09-2.17.09-.98,0-2.44-.05-4.23-.12-2.9-.11-6.51-.24-10.36-.24-1.54,0-4.12,0-4.12,2.08,0,1.38.98,2.08,2.92,2.08,1.54,0,4.39,0,6.01.64,2.32.96,3.37,2.63,3.49,9.95l1.17,52.27c-1.57-1.6-4.38-4.55-7.52-7.85-5.87-6.15-13.16-13.8-17.87-18.51-17.95-17.81-36.26-37.13-37.34-38.3-.41-.43-.77-.84-1.11-1.21-1.49-1.65-2.57-2.84-4.07-2.84-2.56,0-2.56,3.7-2.56,5.08l-1.08,70.99c-.12,10.67-.69,13.29-3.02,14-1.72.49-3.97.57-5.15.57-2.42,0-2.92,1.06-2.92,1.96,0,2.2,2.46,2.2,3.64,2.2,4.45,0,8.56-.18,11.01-.29.99-.04,1.7-.07,2.01-.07.79,0,1.89.04,3.32.1,2.75.11,6.51.27,11.62.27,1.03,0,3.76,0,3.76-2.2,0-1.3-1.02-1.96-3.04-1.96-1.72,0-3.96-.09-5.94-.79-1.52-.53-3.3-2.43-3.56-12.47l-1.26-48.04c.2.22.43.46.66.71,4.72,5.1,15.76,17.03,26.64,27.81,5.08,5.03,10.63,10.61,15.95,15.96,7.76,7.8,15.09,15.18,19.6,19.47,1.49,1.49,3.09,2.94,4.8,2.94,2.56,0,2.56-3.31,2.56-4.71l1.32-76.05c.13-7.09,1.26-8.6,3.71-9.3,1.33-.33,2.19-.33,3.38-.33,2.76,0,3.16-1.3,3.16-2.08"/>
  <path class="cls-1" d="M1738.88,143.27c-2.01,0-2.23,1.95-2.32,2.7-.22,2.09-1.58,5.27-2.87,6.66-2.63,2.85-6.81,3.06-13.37,3.06-9.42,0-12.17-.84-13.94-2.41-2.18-1.87-2.18-10.64-2.18-25.16v-21.21c0-18.36,0-21.66.24-25.49.24-4.09,1.09-5.48,3.63-5.95,1.44-.24,3.32-.34,4.54-.34.78,0,3.16,0,3.16-2.08s-2.46-2.08-3.52-2.08c-2.64,0-6.58.12-10.04.21-2.69.08-5.09.15-6.36.15-1.4,0-3.59-.07-6.09-.15-3.33-.1-7.19-.22-10.42-.22-1.18,0-3.64,0-3.64,2.08,0,1.38,1.02,2.08,3.04,2.08,1.54,0,2.89.12,3.77.33,3.26.7,4.17,1.92,4.4,5.97.25,3.83.25,7.13.25,25.49v21.21c0,11.03,0,20.55-.6,25.54-.49,3.58-1.05,5.46-2.72,5.8-1.39.31-2.74.46-4.13.46-1.3,0-2.02.31-2.43.74-.6-.71-1.69-.74-2.14-.74-1.16,0-2.95-.08-4.83-.46-1.67-.39-5.13-1.22-9.92-12.56-4.18-9.94-11.69-28.47-18.31-44.81-5.5-13.59-10.26-25.31-11.59-28.35-1.13-2.61-2.08-4.46-3.92-4.46-1.95,0-2.86,1.96-4.29,5.44l-30.26,74.73c-2.52,6.3-4.67,9.61-9.45,10.23-.91.11-2.54.23-3.61.23-2.12,0-2.44,1.23-2.44,1.96,0,2.2,2.3,2.2,3.28,2.2,4.31,0,8.69-.17,11.6-.28,1.27-.04,2.21-.08,2.62-.08,1.84,0,4.03.09,6.25.18,2.28.09,4.57.18,6.52.18.76,0,3.04,0,3.04-2.2,0-1.96-1.89-1.96-2.79-1.96h-1.81c-3.37,0-3.83-1.32-3.83-2.75,0-1.26.55-4,1.74-6.99l6.53-16.56c.05-.16.09-.25.09-.29h26.92l.28.21,9.65,24.85c.16.38.17.73.04,1-.13.26-.33.39-.31.4-.77.08-2.58.26-2.58,2.07,0,1.71,1.87,1.81,4.03,1.92l.55.03c9.65.25,18.54.25,22.8.25,2.87,0,5.13,0,6.06-.95.45.54,1.32.95,2.96.95,1.18,0,2.52-.06,3.92-.12,1.46-.06,2.98-.13,4.44-.13,2.87-.12,5.5-.12,6.81-.12h0c4.64,0,8.89.1,14.69.36l4.18.11c4.52.12,9.65.25,16.2.25s7.63-.6,8.55-3.98c.99-3.6,1.84-12.71,1.84-14.12,0-1.14,0-3.04-1.96-3.04M1633.85,125.31h-21l10.64-28.33,10.37,28.33ZM1634.39,125.32s.02,0,.03,0l-.03.99v-.98Z"/>
  <path class="cls-1" d="M731.84,429.28c-1.78,0-4.36-.24-6.02-.48-2.78-.37-3.48-2.18-3.85-5.64-.59-5.12-.59-14.65-.59-25.68v-21.21c0-18.36,0-21.67.24-25.5.23-4.09,1.08-5.48,3.63-5.95,1.44-.24,2.47-.35,3.33-.35.78,0,3.16,0,3.16-2.08s-2.47-2.07-3.52-2.07c-2.64,0-6.19.11-9.32.21-2.43.07-4.6.15-5.87.15-1.34,0-3.42-.06-5.86-.14-3.41-.1-7.67-.22-11.5-.22-1.05,0-3.52,0-3.52,2.07,0,1.39,1.03,2.08,3.04,2.08,1.85,0,3.68.14,4.49.34,3.26.69,4.16,1.91,4.4,5.96.24,3.82.24,7.13.24,25.49v2.38h-45.5v-2.38c0-18.36,0-21.67.24-25.5.23-4.09,1.08-5.48,3.63-5.95,1.44-.24,2.47-.35,3.33-.35.78,0,3.16,0,3.16-2.08s-2.47-2.07-3.52-2.07c-2.64,0-6.19.11-9.32.21-2.43.07-4.6.15-5.87.15-1.34,0-3.42-.06-5.87-.14-3.41-.1-7.66-.22-11.49-.22-1.05,0-3.52,0-3.52,2.07,0,1.39,1.03,2.08,3.04,2.08,1.85,0,3.68.14,4.49.34,3.25.69,4.16,1.91,4.4,5.96.24,3.82.24,7.13.24,25.49v21.21c0,11.03,0,20.56-.59,25.53-.49,3.58-1.05,5.46-2.73,5.8-1.39.31-2.74.46-4.12.46-2.41,0-2.92,1.07-2.92,1.95,0,1,.59,2.2,3.4,2.2s6.4-.12,9.55-.22c2.37-.08,4.45-.15,5.64-.15,1.33,0,3.32.06,5.72.13,3.71.1,8.34.23,13.08.23,3.07,0,3.4-1.54,3.4-2.2,0-.59-.29-1.95-2.93-1.95-1.77,0-4.36-.24-6.01-.48-2.78-.37-3.48-2.18-3.85-5.64-.59-5.12-.59-14.65-.59-25.68v-10.34h45.5v10.34c0,11.03,0,20.56-.6,25.53-.49,3.58-1.05,5.46-2.73,5.8-1.39.31-2.74.46-4.13.46-2.41,0-2.92,1.07-2.92,1.95,0,1.46,1.19,2.2,3.52,2.2,2.67,0,6.27-.12,9.39-.22,2.38-.08,4.48-.15,5.68-.15,1.33,0,3.32.06,5.72.13,3.71.1,8.34.23,13.08.23,3.07,0,3.4-1.54,3.4-2.2,0-.59-.29-1.95-2.92-1.95"/>
  <path class="cls-1" d="M864.64,340.33c-4.22,0-8.64.12-12.19.22-2.59.08-4.82.14-6.37.14-1.41,0-3.57-.06-6.07-.14-3.38-.1-7.58-.22-11.29-.22-.66,0-1.71,0-2.51.37-.51-.23-1.17-.37-2.06-.37-1.11,0-3.54.08-6.06.17-2.68.09-5.47.19-6.84.19-1.67,0-3.43-.09-5.25-.17-1.97-.1-4.01-.19-6.08-.19-.83,0-3.04,0-3.04,2.07,0,1.53,1.7,1.9,2.93,2.17,1.24.29,1.77.91,1.77,2.05,0,1.56-.53,3.53-1.6,5.86-.82,1.82-5.01,9.34-9.07,16.62-3.4,6.08-6.64,11.9-8.18,14.84l-1.42-2.47c-5.01-8.66-16.73-28.97-18.11-31.91-.58-1.15-1.34-2.78-1.34-3.66,0-.5.28-1.06.95-1.21l.61-.16c1.49-.39,2.78-.72,2.78-2.13,0-.62-.28-2.07-2.8-2.07-3.24,0-6.32.12-8.79.23-1.68.07-3.09.13-4.1.13-2.28,0-6.23-.12-9.59-.22-2.5-.08-4.67-.14-5.6-.14-2.96,0-3.28,1.44-3.28,2.07,0,.49.2,2.08,2.8,2.08,1.14,0,2.98.58,4.56,1.43,2.35,1.36,5.26,4.46,7.99,8.5,4.3,6.38,20.35,32.78,21.16,34.63,1.54,3.44,2.65,5.93,2.65,12.19v9.89c0,1.9,0,6.96-.36,11.98-.16,2.38-.81,5.3-2.96,5.73-1.39.31-2.7.46-4.01.46-2.63,0-2.92,1.37-2.92,1.95,0,2.2,2.64,2.2,3.64,2.2,2.46,0,5.86-.11,8.93-.21,2.5-.07,4.78-.15,6.14-.15,1.28,0,3.24.06,5.6.13,3.67.11,8.23.24,12.84.24,3.07,0,3.52-1.38,3.52-2.2,0-.59-.28-1.95-2.92-1.95-1.67,0-4.28-.25-5.89-.48-2.64-.35-3.83-2.01-4.08-5.72-.36-5.02-.36-10.08-.36-11.98v-9.89c0-3.87,0-7.52,1.73-11.67,2.08-4.97,18.85-33.21,22.88-38.09,2.61-3.2,3.81-4.51,6.2-5.66,1.71-.92,3.86-1.33,4.84-1.33s1.6-.17,2.08-.41c.5.26,1.14.41,2.01.41,1.85,0,3.68.14,4.49.34,3.25.69,4.16,1.92,4.4,5.97.24,3.82.24,7.13.24,25.49v21.21c0,11.03,0,20.56-.6,25.54-.49,3.58-1.05,5.46-2.73,5.8-1.39.31-2.74.46-4.13.46-2.41,0-2.92,1.07-2.92,1.95,0,1,.59,2.2,3.4,2.2,1.18,0,2.52-.05,3.91-.12,1.47-.06,2.98-.13,4.45-.13,2.87-.12,5.5-.12,6.82-.12h0c2.67,0,6.42.31,10.39.62l1.34.1c4.65.37,9.57.73,13.94.73,24.25,0,36.81-10.15,41.08-14.52,4.03-4.1,13.42-15.67,13.42-34.32,0-15.59-6.5-25.62-11.96-31.3-13.43-14.04-34.02-14.04-49.05-14.04M854.31,374.34c0-9.37,0-19.99.12-24.11,0-1.04.21-1.22.9-1.52.66-.33,4.74-.74,7.39-.74,14.29,0,25.26,3.86,33.55,11.77,3.39,3.23,11.27,12.57,11.27,29.42,0,14.03-3.2,23.6-9.78,29.26-6.91,5.99-14.76,8.44-27.07,8.44-8.82,0-13.52-2.27-14.99-4.42-.83-1.15-1.07-6.77-1.14-8.63-.12-2.2-.24-11.47-.24-24.29v-15.18Z"/>
  <path class="cls-1" d="M996.37,413.13c-1.82,0-2.11,1.57-2.3,2.63-.8,4.7-2.12,6.92-4.86,8.18-2.94,1.36-7.93,1.36-10.91,1.36-12.07,0-13.25-1.62-13.47-9.17-.09-2.47-.05-8.68-.02-13.67.01-2.01.02-3.78.02-4.97v-9.52c0-.09,0-.16,0-.22,3.61,0,14.66.14,16.73.36,4.45.48,5.48,2.27,5.89,3.93.24,1.05.31,2.13.37,3.08.03.4.05.78.08,1.04,0,1.28.79,2.08,2.08,2.08,2.07,0,2.07-2.3,2.07-3.28,0-.46.11-2.07.22-3.83.1-1.5.21-3.1.26-4.17.32-4.04.64-6.27.81-7.48.1-.71.16-1.13.16-1.4,0-1.19-.72-1.96-1.84-1.96-1.02,0-1.65.73-2.67,1.89-.86.96-2.53,1.27-5.13,1.49-1.71.15-8.54.23-18.81.23h-.23c0-.08,0-.18,0-.33v-30.5c0-.09,0-.16,0-.22,2.96.01,14.94.26,16.84.48,5.68.68,6.57,1.91,7.27,3.73.51,1.23.65,3.07.65,3.96,0,2.21,1.13,2.68,2.07,2.68.79,0,1.82-.37,2.18-2.16.16-.98.32-3.53.45-5.57.07-1.09.13-2.02.17-2.48.24-3.68.58-5.49.79-6.57.11-.61.17-1,.17-1.33,0-1.92-1.31-2.07-1.71-2.07-.53,0-1.06.17-1.51.32-.21.07-.42.15-.66.19-.79.2-2.45.43-5,.69-2.04.11-21.71.12-30.07.12-1.38,0-3.48-.08-5.91-.17l-1.69-.07c-1.47,0-3.06-.03-4.67-.06-1.7-.03-3.42-.06-5.09-.06-1.18,0-3.64,0-3.64,2.07,0,1.39,1.02,2.08,3.04,2.08,1.85,0,3.68.14,4.49.34,3.25.69,4.16,1.92,4.4,5.97.24,3.82.24,7.13.24,25.49v21.21c0,11.03,0,20.56-.6,25.53-.49,3.58-1.04,5.46-2.72,5.8-1.39.31-2.74.46-4.13.46-2.41,0-2.92,1.07-2.92,1.95,0,1,.59,2.2,3.4,2.2,1.18,0,2.52-.05,3.92-.12,1.46-.06,2.98-.13,4.44-.13,2.87-.12,5.5-.12,6.82-.12h0c3.39,0,7.01.11,12.51.36l3.57.09c4.54.12,10.21.27,17.31.27,4.55,0,6.42,0,7.47-3.89.62-2.51,1.59-10.79,1.59-13.62,0-1.18,0-3.15-1.96-3.15"/>
  <path class="cls-1" d="M1233.49,380.16c5.7-4.73,11.3-10.73,11.3-20.76,0-4.48-1.92-19.07-26.66-19.07-1.88,0-3.87.08-6.05.16-2.6.1-5.44.2-8.66.2-.91,0-2.56-.05-4.62-.11-3.29-.11-7.8-.25-11.77-.25-1.18,0-3.64,0-3.64,2.07,0,1.38,1.02,2.08,3.04,2.08,1.85,0,3.68.14,4.49.34,3.25.69,4.16,1.92,4.4,5.96.24,3.83.24,7.13.24,25.49v21.21c0,11.03,0,20.56-.6,25.54-.49,3.58-1.04,5.45-2.72,5.8-1.39.31-2.74.46-4.13.46-1.3,0-2.02.31-2.43.74-.6-.71-1.69-.74-2.15-.74-1.16,0-2.94-.08-4.83-.46-1.67-.4-5.14-1.23-9.92-12.56-4.19-9.93-11.69-28.46-18.31-44.81-5.51-13.58-10.26-25.31-11.59-28.35-1.13-2.61-2.08-4.45-3.92-4.45-1.95,0-2.85,1.96-4.29,5.43l-30.26,74.73c-1.43,3.57-2.75,6.15-4.49,7.86-1.99-1.15-4.34-2.88-7-5.64-6.12-6.42-13.06-15.18-21.86-26.28l-3.63-4.58c10.87-9.02,15.52-17.17,15.52-27.14,0-9.08-5.65-15.31-8.63-17.33-6.88-4.72-15.35-5.36-22.73-5.36-1.83,0-4.96.09-8.16.17-3.33.09-6.75.18-8.83.18-.97,0-2.7-.05-4.81-.12-3.46-.11-7.77-.24-11.71-.24-1.18,0-3.64,0-3.64,2.07,0,1.38,1.02,2.08,3.04,2.08,1.85,0,3.68.14,4.49.34,3.25.69,4.16,1.92,4.4,5.96.24,3.83.24,7.13.24,25.49v21.21c0,11.03,0,20.56-.6,25.54-.49,3.58-1.05,5.45-2.73,5.8-1.39.31-2.74.46-4.13.46-2.41,0-2.92,1.06-2.92,1.95,0,1,.59,2.2,3.4,2.2s6.7-.13,9.84-.23c2.14-.07,3.94-.13,4.87-.13.61,0,2.01.04,3.88.09,3.66.11,9.19.27,13.84.27,2.81,0,3.4-1.2,3.4-2.2,0-.94-.64-1.95-2.44-1.95-1.39,0-4.03-.24-5.77-.48-2.8-.37-3.47-2.15-3.85-5.76-.6-5-.6-14.58-.6-25.67l-.05-1.66,10.51.24c.77,0,1.09.11,1.42.5.87,1,3.11,4.19,5.7,7.88,1.95,2.78,4.13,5.88,6.18,8.69,7.1,9.76,11.66,15.23,16.84,18.01,2.01,1.08,3.98,1.71,6.64,2.06.73.33,1.62.34,2.14.34.89,0,1.79-.01,2.67-.02.62,0,1.24.02,1.92.02h11.45c.41,0,1.23,0,1.95-.28.82.03,1.64.06,2.48.1,2.28.09,4.57.18,6.52.18.75,0,3.04,0,3.04-2.2,0-1.95-1.89-1.95-2.8-1.95h-1.81c-3.37,0-3.83-1.32-3.83-2.75,0-1.27.55-3.99,1.74-6.99l6.53-16.56c.05-.16.09-.25.09-.29.01,0,.03,0,.05,0h26.88l.28.22,9.65,24.85c.16.38.17.72.03,1.01-.12.26-.33.39-.3.4-.77.08-2.58.27-2.58,2.07s1.87,1.82,4.04,1.92l.55.03c9.65.25,18.53.25,22.8.25,2.87,0,5.13,0,6.06-.95.45.54,1.32.95,2.96.95,1.18,0,2.52-.06,3.92-.12,1.46-.06,2.98-.13,4.45-.13,2.87-.12,5.49-.12,6.81-.12h0c1.74,0,5.29.11,9.01.36,1.63.05,3.27.14,4.7.21,1.63.08,2.99.15,3.77.15,22.79,0,33.17-14.13,33.17-27.27s-10.52-22.31-20.94-26.36M1224.03,426.38c-2.66,0-5.31-.11-8.42-1.37-3.16-1.28-3.6-2.58-3.6-10.66v-28.42c1.66,0,2.83,0,4.87.12,4.41.23,7.07.99,9.48,2.71h0c10.17,7.1,11.27,18.57,11.27,23.18,0,13.74-11.32,14.44-13.6,14.44M1225.54,376.98c-1.69,1.49-3.86,2.04-8.02,2.04-2.65,0-4.43-.12-5.47-.31,0,0-.05-.09-.05-.39v-29.77c0-1,.1-1.02.29-1.08,1.11-.22,2.12-.22,3.78-.22,10.25,0,14.08,10.85,14.08,17.69,0,5.44-1.58,9.59-4.61,12.04M1142.25,394.69h-21l10.63-28.33,10.36,28.33ZM1142.8,394.7s.02,0,.03-.01l-.03,1v-.98ZM1062.75,369.04c0,10.75-4.2,15.44-6.7,17.28-1.97,1.41-3.33,1.86-7.98,1.86-3.37,0-6.67-.43-8.77-1.12-.36-.15-.48-.2-.48-1.26v-36.64c0-.63.06-.64.38-.74,1.31-.39,4.11-.44,6.1-.44,6.48,0,17.46,4.44,17.46,21.07"/>
  <path class="cls-1" d="M1439.75,354.38c-13.44-14.05-34.02-14.05-49.05-14.05-4.22,0-8.64.13-12.19.22-2.59.08-4.82.14-6.37.14-1.41,0-3.57-.06-6.07-.14-3.37-.1-7.58-.22-11.29-.22-1.18,0-3.64,0-3.64,2.07,0,1.38,1.02,2.08,3.04,2.08,1.85,0,3.68.14,4.49.34,3.25.69,4.16,1.92,4.4,5.97.24,3.82.24,7.13.24,25.49v21.21c0,11.03,0,20.56-.6,25.54-.49,3.58-1.05,5.46-2.73,5.8-1.39.31-2.74.46-4.13.46-1.3,0-2.02.31-2.43.74-.6-.71-1.69-.74-2.14-.74-1.16,0-2.95-.08-4.83-.46-1.67-.4-5.13-1.23-9.92-12.56-4.19-9.93-11.69-28.46-18.31-44.81-5.5-13.58-10.26-25.31-11.59-28.35-1.13-2.61-2.08-4.45-3.92-4.45-1.95,0-2.86,1.96-4.29,5.43l-30.26,74.73c-2.52,6.29-4.67,9.6-9.44,10.23-.91.11-2.55.23-3.61.23-2.12,0-2.44,1.23-2.44,1.95,0,2.2,2.3,2.2,3.28,2.2,4.31,0,8.69-.17,11.6-.28,1.27-.04,2.21-.08,2.62-.08,1.84,0,4.03.09,6.25.18,2.28.09,4.57.18,6.52.18.76,0,3.04,0,3.04-2.2,0-1.95-1.89-1.95-2.8-1.95h-1.81c-3.37,0-3.83-1.32-3.83-2.75,0-1.26.54-3.99,1.74-6.99l6.53-16.56c.05-.16.09-.25.09-.29.01,0,.03,0,.05,0h26.88l.28.22,9.65,24.85c.16.38.17.73.03,1.01-.12.26-.33.39-.3.4-.77.08-2.58.27-2.58,2.07s1.87,1.82,4.03,1.92l.55.03c9.65.25,18.54.25,22.8.25,2.87,0,5.13,0,6.06-.95.45.54,1.32.95,2.97.95,1.17,0,2.52-.06,3.91-.12,1.46-.06,2.98-.13,4.45-.13,2.87-.12,5.5-.12,6.81-.12h0c2.68,0,6.43.3,10.39.62l1.34.1c4.65.37,9.57.73,13.94.73,24.25,0,36.81-10.15,41.08-14.52,4.03-4.1,13.43-15.67,13.43-34.32,0-15.59-6.51-25.62-11.97-31.3M1380.37,374.35c0-9.37,0-19.99.12-24.11,0-1.04.21-1.22.9-1.52.66-.33,4.74-.74,7.39-.74,14.29,0,25.26,3.85,33.55,11.77,3.39,3.23,11.27,12.57,11.27,29.42,0,14.03-3.2,23.6-9.78,29.26-6.92,6-14.76,8.44-27.07,8.44-8.82,0-13.52-2.27-14.99-4.42-.84-1.14-1.07-6.77-1.14-8.63-.12-2.2-.24-11.47-.24-24.29v-15.18ZM1310.01,394.69h-21l10.64-28.33,10.36,28.33ZM1310.56,394.7s.02,0,.03-.01l-.03,1v-.98Z"/>
  <polygon class="cls-1" points="636.12 475.74 642.67 475.74 642.67 519.41 668.7 519.41 668.7 524.92 636.12 524.92 636.12 475.74"/>
  <path class="cls-1" d="M703.46,513.62c-1.58,7.85-7.23,12.12-15.22,12.12-11.36,0-16.73-7.85-17.07-18.73,0-10.68,7.02-18.53,16.73-18.53,12.6,0,16.46,11.77,16.11,20.38h-26.65c-.21,6.2,3.3,11.71,11.09,11.71,4.82,0,8.2-2.33,9.23-6.95h5.79ZM697.82,503.7c-.28-5.57-4.48-10.05-10.26-10.05-6.13,0-9.78,4.62-10.19,10.05h20.45Z"/>
  <path class="cls-1" d="M741.26,524.78c-1.03.62-2.34.96-4.2.96-3.03,0-4.96-1.65-4.96-5.51-3.24,3.78-7.58,5.51-12.53,5.51-6.48,0-11.77-2.89-11.77-9.98,0-8.06,5.99-9.78,12.05-10.95,6.47-1.24,11.98-.82,11.98-5.24,0-5.09-4.2-5.92-7.92-5.92-4.96,0-8.61,1.52-8.88,6.75h-5.86c.35-8.81,7.16-11.91,15.08-11.91,6.4,0,13.36,1.45,13.36,9.78v18.32c0,2.76,0,3.99,1.86,3.99.48,0,1.03-.06,1.79-.34v4.55ZM731.76,506.53c-2.27,1.66-6.68,1.72-10.6,2.41-3.86.69-7.16,2.07-7.16,6.4,0,3.86,3.3,5.23,6.88,5.23,7.72,0,10.88-4.81,10.88-8.05v-5.99Z"/>
  <path class="cls-1" d="M778.16,524.91h-5.86v-4.82h-.14c-1.93,3.93-6.48,5.65-11.36,5.65-10.96,0-16.39-8.67-16.39-18.73s5.37-18.52,16.25-18.52c3.65,0,8.88,1.38,11.5,5.57h.14v-18.32h5.86v49.17ZM761.63,520.58c7.85,0,10.88-6.75,10.88-13.43,0-7.02-3.17-13.5-11.23-13.5s-10.67,6.82-10.67,13.78,3.44,13.15,11.02,13.15"/>
  <path class="cls-1" d="M793.02,482.9h-5.85v-7.16h5.85v7.16ZM787.17,489.31h5.85v35.61h-5.85v-35.61Z"/>
  <path class="cls-1" d="M801.77,489.31h5.51v5.65h.14c2.48-4.4,6.47-6.47,11.57-6.47,9.37,0,12.26,5.37,12.26,13.01v23.42h-5.85v-24.11c0-4.34-2.75-7.16-7.23-7.16-7.1,0-10.54,4.76-10.54,11.15v20.11h-5.85v-35.61Z"/>
  <path class="cls-1" d="M870.42,521.89c0,11.57-5.3,17.49-16.53,17.49-6.68,0-14.39-2.69-14.73-10.48h5.85c.27,4.28,5.37,5.79,9.23,5.79,7.65,0,10.68-5.51,10.68-13.5v-2.34h-.14c-1.93,4.34-6.61,6.48-11.09,6.48-10.61,0-15.91-8.34-15.91-18.04,0-8.41,4.13-18.8,16.46-18.8,4.48,0,8.47,2,10.61,5.92h.07v-5.1h5.51v32.58ZM864.63,506.39c0-6.26-2.75-12.74-10.12-12.74s-10.53,6.13-10.53,12.95c0,6.4,2.34,13.57,10.06,13.57s10.6-7.09,10.6-13.77"/>
  <path class="cls-1" d="M919.44,474.57c15.63,0,23.55,12.4,23.55,25.76s-7.92,25.76-23.55,25.76-23.55-12.39-23.55-25.76,7.91-25.76,23.55-25.76M919.44,520.58c11.98,0,17.01-10.33,17.01-20.25s-5.03-20.25-17.01-20.25-17.01,10.33-17.01,20.25,5.03,20.25,17.01,20.25"/>
  <path class="cls-1" d="M979.13,524.92h-5.51v-5.65h-.14c-2.48,4.41-6.47,6.47-11.57,6.47-9.37,0-12.26-5.37-12.26-13.01v-23.42h5.85v24.11c0,4.34,2.76,7.16,7.23,7.16,7.1,0,10.54-4.75,10.54-11.15v-20.11h5.85v35.61Z"/>
  <path class="cls-1" d="M987.38,489.31h5.52v7.51h.13c2.82-5.72,6.75-8.54,13.09-8.33v6.19c-9.44,0-12.88,5.38-12.88,14.39v15.84h-5.86v-35.61Z"/>
  <path class="cls-1" d="M1050.73,474.57c15.64,0,23.55,12.4,23.55,25.76s-7.91,25.76-23.55,25.76-23.55-12.39-23.55-25.76,7.92-25.76,23.55-25.76M1050.73,520.58c11.98,0,17.01-10.33,17.01-20.25s-5.03-20.25-17.01-20.25-17.01,10.33-17.01,20.25,5.03,20.25,17.01,20.25"/>
  <polygon class="cls-1" points="1116.21 524.92 1110.01 524.92 1102.78 496.61 1102.65 496.61 1095.48 524.92 1089.15 524.92 1077.71 489.31 1084.19 489.31 1092.25 518.44 1092.38 518.44 1099.55 489.31 1105.95 489.31 1113.39 518.44 1113.53 518.44 1121.52 489.31 1127.58 489.31 1116.21 524.92"/>
  <path class="cls-1" d="M1132.79,489.31h5.51v5.65h.14c2.48-4.4,6.48-6.47,11.57-6.47,9.37,0,12.26,5.37,12.26,13.01v23.42h-5.86v-24.11c0-4.34-2.75-7.16-7.23-7.16-7.09,0-10.53,4.76-10.53,11.15v20.11h-5.86v-35.61Z"/>
  <polygon class="cls-1" points="1190.49 475.74 1197.03 475.74 1197.03 519.41 1223.07 519.41 1223.07 524.92 1190.49 524.92 1190.49 475.74"/>
  <path class="cls-1" d="M1257.83,513.62c-1.58,7.85-7.23,12.12-15.23,12.12-11.36,0-16.73-7.85-17.07-18.73,0-10.68,7.02-18.53,16.73-18.53,12.6,0,16.46,11.77,16.11,20.38h-26.65c-.21,6.2,3.3,11.71,11.09,11.71,4.82,0,8.2-2.33,9.23-6.95h5.79ZM1252.19,503.7c-.28-5.57-4.48-10.05-10.26-10.05-6.13,0-9.78,4.62-10.19,10.05h20.45Z"/>
  <path class="cls-1" d="M1295.63,524.78c-1.03.62-2.34.96-4.2.96-3.03,0-4.96-1.65-4.96-5.51-3.24,3.78-7.58,5.51-12.54,5.51-6.47,0-11.77-2.89-11.77-9.98,0-8.06,5.99-9.78,12.05-10.95,6.47-1.24,11.98-.82,11.98-5.24,0-5.09-4.2-5.92-7.92-5.92-4.96,0-8.61,1.52-8.88,6.75h-5.86c.35-8.81,7.17-11.91,15.09-11.91,6.4,0,13.36,1.45,13.36,9.78v18.32c0,2.76,0,3.99,1.86,3.99.48,0,1.04-.06,1.79-.34v4.55ZM1286.13,506.53c-2.27,1.66-6.68,1.72-10.61,2.41-3.86.69-7.16,2.07-7.16,6.4,0,3.86,3.31,5.23,6.88,5.23,7.72,0,10.89-4.81,10.89-8.05v-5.99Z"/>
  <path class="cls-1" d="M1300.5,489.31h5.52v7.51h.14c2.82-5.72,6.74-8.54,13.09-8.33v6.19c-9.44,0-12.88,5.38-12.88,14.39v15.84h-5.86v-35.61Z"/>
  <path class="cls-1" d="M1324.53,489.31h5.52v5.65h.13c2.48-4.4,6.48-6.47,11.57-6.47,9.37,0,12.26,5.37,12.26,13.01v23.42h-5.86v-24.11c0-4.34-2.75-7.16-7.23-7.16-7.09,0-10.53,4.76-10.53,11.15v20.11h-5.86v-35.61Z"/>
  <path class="cls-1" d="M1368.67,482.9h-5.86v-7.16h5.86v7.16ZM1362.81,489.31h5.86v35.61h-5.86v-35.61Z"/>
  <path class="cls-1" d="M1377.41,489.31h5.51v5.65h.14c2.48-4.4,6.48-6.47,11.57-6.47,9.37,0,12.26,5.37,12.26,13.01v23.42h-5.86v-24.11c0-4.34-2.75-7.16-7.23-7.16-7.09,0-10.53,4.76-10.53,11.15v20.11h-5.86v-35.61Z"/>
  <path class="cls-1" d="M1446.06,521.89c0,11.57-5.3,17.49-16.54,17.49-6.68,0-14.38-2.69-14.74-10.48h5.86c.28,4.28,5.37,5.79,9.23,5.79,7.65,0,10.67-5.51,10.67-13.5v-2.34h-.14c-1.93,4.34-6.61,6.48-11.08,6.48-10.61,0-15.92-8.34-15.92-18.04,0-8.41,4.13-18.8,16.46-18.8,4.48,0,8.47,2,10.61,5.92h.07v-5.1h5.52v32.58ZM1440.27,506.39c0-6.26-2.75-12.74-10.12-12.74s-10.53,6.13-10.53,12.95c0,6.4,2.34,13.57,10.06,13.57s10.6-7.09,10.6-13.77"/>
  <path class="cls-2" d="M564.78,305.61c-11.97,154.57-146.98,270.18-301.55,258.22C108.66,551.86-6.95,416.86,5.02,262.28,16.98,107.71,151.99-7.9,306.56,4.06c154.58,11.97,270.18,146.98,258.22,301.55"/>
  <path class="cls-1" d="M284.9.5C128.6.5,1.45,127.66,1.45,283.95s127.15,283.45,283.44,283.45,283.45-127.16,283.45-283.45S441.2.5,284.9.5M284.9,552.19c-147.91,0-268.24-120.33-268.24-268.24,0-95.76,50.48-179.92,126.19-227.39-20.56,24.1-41,48.3-61.24,72.67-15.11,18.19-27.13,38.06-35.36,60.15,4.39,2.91,8.38,5.42,11.19,6.88,1.99-5.42,4.16-10.81,6.72-16.13,6.76-14.07,14.59-27.46,24.71-39.44,23.48-27.79,46.78-55.73,70.41-83.39,15.15-17.72,34.5-28.54,57.72-30.79,32.49-3.16,59.72,7.38,80.09,33.67,11.14,14.39,17.04,30.72,18.06,48.82,1.36,24.28-6.66,45.33-22.17,63.75-14.22,16.89-28.5,33.71-42.66,50.65,0,.03,0,.05,0,.08l-5.26,6.32.04.12c-.87,1.1-1.47,2.43-1.47,3.94,0,3.58,2.9,6.47,6.48,6.47,1.87,0,3.53-.82,4.71-2.09,0,0,.04.02.04.02l9.13-11.14h0c14.07-16.63,28.1-33.27,41.91-50.11,5.74-7.01,10.16-15.31,14.11-23.53,5.01-10.45,7.31-21.83,7.96-33.43,1.26-22.32-4.03-43.17-16.28-61.7-9.56-14.47-22.08-25.91-38.05-33.97-5.86-2.96-11.74-5.26-17.64-7.05,9.5-1.02,19.14-1.59,28.91-1.59,1.01,0,2.01.07,3.03.08,6.79,4.97,17.93,15.39,33.05,37.21,9.44,13.61,14.79,28.95,16.92,45.18,3.72,28.33-2,54.72-18.42,78.45-.67.96-1.38,1.95-1.77,3.04-1.2,3.31-.29,6.03,2.64,8.01,3.13,2.12,5.83,1.34,8.05-1.43,1.92-2.39,3.98-4.73,5.47-7.38,9.25-16.36,15.62-33.69,17.32-52.54,2.23-24.74-2.08-48.16-13.65-70.28-4.89-9.34-17.43-27.3-30.17-39.33,5.95.5,11.86,1.13,17.69,2.01,2.38,3.12,7.52,9.88,7.82,10.25,8.17,10.25,15.09,21.4,19.85,33.87,1.85,4.83,5.28,6.53,8.6,5.01,3.74-1.72,5.08-5.8,3.09-10.2-4.53-9.99-9.75-19.49-15.89-28.58-.19-.29-2.71-4.05-4.49-6.72,5.39,1.22,10.7,2.6,15.96,4.13.31.36.59.66.92,1.07-.04,0-.09,0-.14,0,9.55,14.86,16.48,30.77,20.74,47.86,6.54,26.26,6.31,52.6-.39,78.87-3.41,13.36-8.82,25.95-15.38,37.95,10.55-11.2,19.98-21.68,26.14-29.49.22-.75.39-1.49.61-2.23l.2.98s.75-3.08,1.65-7.94c4.84-20.22,5.9-40.7,3.25-61.55-2.64-20.73-8.68-40.38-18.55-58.87-.08-.15-.17-.3-.25-.45,5.22,1.96,10.35,4.11,15.41,6.38,2.99,7,6.25,15.87,8.29,23.05,6.59,23.14,9.09,46.6,6.27,70.37,2.16-.73,4.19-1.49,5.57-2.5,3.9-2.85,7.05-7.22,8.24-13.04.35-21.26-2.66-42.44-9.48-63.51-.07-.2-1.18-3.62-2.01-6.14,4.54,2.43,9.01,4.96,13.39,7.65,5.49,16.4,9.38,46.01,7.35,59.42,1.65-.4,3.35-.95,4.92-1.54,4.1-1.53,7.46-7.52,7.66-11.9.27-6.09-2.58-25.4-4.89-36.02,68.69,48.63,113.66,128.65,113.66,219.02,0,147.91-120.34,268.24-268.25,268.24"/>
  <path class="cls-1" d="M209.13,368.2c3.38,4.71,6.68,9.44,9.75,13.95,25.2,2.16,48.19-2.35,68.68-13.51,1.33-5.58,2.42-11.24,3.2-16.87-8.02,5.25-16.79,9.36-26.2,12.39-18.85,6.07-37.33,7.43-55.43,4.04"/>
  <path class="cls-1" d="M227.07,333.34c1.74-1.22,2.57-4.88.57-8.04-1.28-2.03-3.56-3.02-6.63-3.25-9.42-.74-17.54-4.82-25.77-8.98-10.91-5.53-18.16-14.73-23.1-25.08-12.27-25.68-9.89-50.15,8.92-72.36,22.59-26.67,45.12-53.39,67.56-80.19,2.53-3.03,4.92-6.46,6.31-10.11,6.96-18.25-2.97-35.18-18.38-39.88-12.85-3.92-23.88-.67-32.83,10.14-22.6,27.27-45.31,54.47-68.54,81.21-8.95,10.29-15.88,21.49-20.94,33.61,2.32,6.69,4.63,13.36,6.84,19.61.03-.1.04-.21.07-.32,3.29-12.29,7.79-24.32,15.98-34.33,15.4-18.82,31.11-37.4,46.73-56.04,9.84-11.74,19.66-23.51,29.7-35.09,2.23-2.58,4.99-5.25,8.06-6.46,12.02-4.74,24.73,6.84,22.6,18.74-.77,4.24-2.8,7.38-5.42,10.47-23.46,27.79-46.9,55.59-70.33,83.4-8.75,10.38-13.53,22.56-15.49,35.83-3.18,21.49,1.48,41.03,14.74,58.49,13.24,17.45,30.72,27.38,52.31,30.14,3.79.48,5.18-.18,7.06-1.5"/>
  <path class="cls-1" d="M260.03,340.65c-28.8,10.45-57.52,6.17-80.45-9.63,1.36,1.62,2.66,3.14,3.84,4.44,4.41,4.85,9.87,11.59,15.58,19.06,8.11,2.54,16.54,4.02,25.32,4.41,26.12,1.15,48.6-6.44,67.65-21.56.16-5.62-.16-11.02-.97-16.11-8.88,8.51-19.13,15.1-30.97,19.4"/>
  <path class="cls-1" d="M162.34,200.43c11.46-14.43,23.11-28.69,34.65-43.06,5.11-6.37,5.77-10.17,2.41-13.01-3.28-2.78-7.38-1.21-12.19,4.74-11.73,14.51-23.5,28.99-35.12,43.58-12.3,15.46-20.12,32.84-22.18,52.64-.21,1.99-.33,3.96-.43,5.93,1.07,2.52,2.05,4.78,2.94,6.65,3.03,6.38,7.44,14.02,12.5,22.02-1.9-7.5-2.84-15.34-2.78-23.45.15-21.06,7.19-39.65,20.2-56.04"/>
  <path class="cls-1" d="M247.83,332.86c3-.47,5.96-1.35,8.83-2.36,12.86-4.53,23.11-12.7,31.88-22.86-1.11-6.71-1.71-12.48-1.72-17.64-1.86,2.2-3.72,4.41-5.58,6.6-6.73,7.95-14.04,15.3-23.84,19.48-4.1,1.74-8.31,3.22-12.49,4.77-3.51,1.31-4.54,3.92-3.84,7.35.75,3.63,3.27,5.2,6.76,4.66"/>
  <path class="cls-1" d="M245.49,48.2c.04.24.17.39.23.61.06.17.12.34.19.51,1,2.61,3.42,3.74,5.94,4.87,13.43,6.08,23.9,15.27,31.57,28.11,12.22,20.46,10.71,52.81-6.23,72.01-13.28,15.04-25.94,30.63-38.88,45.96-10.65,12.62-21.48,25.1-31.94,37.88-9.67,11.8-9.55,28.16.05,39.73,11.55,13.91,34.64,12.73,44.38.86,19.92-24.27,40.41-48.07,60.66-72.07.61-.72,1.19-1.46,1.75-2.22,1.5-2.01,1.77-4.02.58-5.99-.83-2.3-2.98-3.97-5.57-3.97-2.01,0-3.71,1.06-4.79,2.59-1.33,1.06-2.59,2.2-3.67,3.47-9.37,10.94-18.61,21.98-27.89,33-9.74,11.54-19.46,23.12-29.25,34.63-2.58,3.04-5.14,5.98-9.59,6.7-7.54,1.23-14.67-1.51-18.35-7.61-4.02-6.66-3.54-14.23,1.54-20.28,23.07-27.49,46.07-55.03,69.34-82.34,10.42-12.23,16.52-26.12,18.39-41.99,4.05-34.39-15.49-67.75-49.17-80.55-.92-.68-1.99-1.14-3.2-1.21-.09-.03-.17-.06-.26-.1-.02.01-.04.02-.06.04-3.29,0-5.96,2.67-5.96,5.97,0,.18.09.34.11.53,0,.29.01.57.07.87"/>
  <path class="cls-1" d="M265.32,413.31c-3.72.4-7.38,1.42-11.09,1.95-4.32.62-8.58,1.03-12.82,1.34,8.62,10.18,18.7,15.59,26.7,2.71.86-1.38,1.75-2.98,2.67-4.69-1.21-1.08-2.94-1.57-5.46-1.3"/>
  <path class="cls-1" d="M375.46,113.19c-.16-10.02-.66-20.05-3.38-29.56-.34-1.19-1.49-4.97-4.59-5.5-5.63-.96-8.22,3.03-7.32,9.72.09.7.16,1.4.28,2.1,7.36,42.1-3.75,79.51-30.08,112.32-22.01,27.42-45.17,53.92-67.92,80.75-5.09,6-11.4,10.75-18.82,13.33-15.79,5.5-29.71,2.42-42.48-8.87-12.79-11.3-15.32-30.71-10.02-43.99,2.51-6.28,1.85-9.66-2.32-11.53-3.76-1.69-7.85.75-9.86,6.68-9.25,27.32.1,53.54,26.04,67.44,21.52,11.53,47.67,6.61,63.28-11.39,26.59-30.67,52.53-61.92,78.41-93.19,8.6-10.39,14.55-22.59,19.29-35.17,6.44-17.06,9.76-34.83,9.47-53.12"/>
  <path class="cls-1" d="M226.3,393.49c1.97,3.12,3.73,6.01,5.14,8.5.81,1.43,1.69,2.88,2.58,4.32,15.2-.44,29.97-3.23,44.27-8.24,1.94-4.92,3.83-10.23,5.56-15.83-13.36,5.86-27.59,9.44-42.58,10.76-5.04.45-10.03.58-14.97.5"/>
  <path class="cls-1" d="M114.61,147.26c20.87-24.88,41.76-49.74,62.87-74.4,4.23-4.94,9.45-9.21,14.78-12.98,10.06-7.11,21.59-9.99,33.87-10.6,1.36-.06,2.47-.21,3.47-.41.36.06.69.21,1.07.21,3.3,0,5.97-2.67,5.97-5.97,0-2.74-1.88-4.95-4.39-5.65-.01-.03-.02-.05-.03-.09-.28-.01-.55-.05-.82-.08-.25-.03-.47-.15-.72-.15-.08,0-.15.04-.22.04-2.18-.24-4.36-.53-6.52-.44-24.08.98-43.01,11.79-58.27,30.12-17.96,21.57-36.12,42.98-54.21,64.45-.02.01-.06.03-.06.03,0,0-35.32,37.9-43.05,65.8-.06.23-.09.39-.15.61-.15.4-.32.8-.46,1.21.05,0,.11,0,.16,0,3.85.03,8.97-1.76,17.67-9.32.44-.38.91-.81,1.36-1.23.69-.62,1.37-1.22,2.1-1.91,0,0,4.83-5.56,4.87-10.45,0-.84-.09-1.66-.41-2.42-.25-.59-.49-1.27-.74-2.01-1.9-5.85-3.26-15.59.22-16.04.95-.13,3.12,4.49,5.98,11.84,2.61-3.52,4.88-7.32,7.7-10.67,2.65-3.17,5.32-6.34,7.98-9.5"/>
  <path class="cls-1" d="M232.77,242.19c-6.35.43-11.15,5.92-10.72,12.27.43,6.35,5.92,11.15,12.27,10.72,6.35-.43,11.15-5.93,10.72-12.27-.43-6.35-5.92-11.15-12.27-10.72"/>
  <path class="cls-1" d="M192.69,90.64c3.78-4.42,8.44-8.36,13.35-11.47,24.3-15.39,56.83-.42,61.45,27.99,2.16,13.27-1.98,24.38-10.6,34.44-19.35,22.6-38.42,45.46-57.6,68.21-1.38,1.63-2.79,3.25-3.7,5.16-.78,1.04-1.34,2.27-1.34,3.68,0,2.97,2.13,5.35,4.93,5.96.11.09.23.19.34.29.21,0,.37-.08.58-.1.13,0,.24.08.37.08,1.24,0,2.34-.46,3.31-1.09,1.97-.95,3.49-2.43,4.77-4.4,1.79-2.76,3.9-5.34,6.04-7.84,17.51-20.44,35.31-40.63,52.43-61.39,4.84-5.88,8.85-13,11.21-20.23,5.48-16.83,2.91-32.88-7.67-47.47-9.58-13.21-22.49-20.67-38.57-21.98-18.86-1.53-34.48,5.2-46.74,19.86-21.51,25.73-43.38,51.16-64.74,77.01-6.04,7.31-11.52,15.14-16.74,23.09,1.69,4.72,3.49,9.85,5.35,15.19,4.55-8.65,10.02-17.1,16.52-25.31,21.54-27.21,44.5-53.3,67.07-79.67"/>
  <path class="cls-1" d="M212.55,138.19s.04.02.06.04c.04-.03.09-.05.13-.08.88-.3,1.67-.75,2.31-1.41,1-.61,11.7-12.33,15.92-17.68,2.93-3.72,2.79-8.02.18-10.19-2.54-2.1-6.88-1.33-9.95,2.14-4.21,4.75-16.04,20.13-16.04,21.75,0,3.18,2.58,5.75,5.75,5.75.58,0,1.1-.17,1.63-.32"/>
</svg>