<svg width="696" height="510" viewBox="0 0 696 510" fill="none" xmlns="http://www.w3.org/2000/svg">
<g clip-path="url(#clip0_4187_4210)">
<path d="M538.58 445.06C670.657 402.994 692.627 290.751 587.654 194.341C482.681 97.9311 290.511 53.8765 158.42 95.94C26.3426 138.007 4.37284 250.249 109.346 346.659C214.319 443.069 406.489 487.124 538.58 445.06Z" fill="#D6F4AE"/>
<path d="M520.012 268.452L487.598 350.867L609.861 398.954L642.275 316.539L520.012 268.452Z" fill="white"/>
<path d="M642.239 317.649C642.239 317.649 641.709 317.909 640.669 318.299C639.519 318.709 637.989 319.259 636.089 319.939C631.969 321.359 626.229 323.349 619.169 325.779C604.729 330.649 584.969 337.299 563.069 344.679L562.609 344.839L562.369 344.419C562.179 344.099 561.979 343.749 561.779 343.399C550.179 323.109 539.679 304.749 531.999 291.319C528.289 284.709 525.259 279.329 523.089 275.469C522.109 273.669 521.319 272.219 520.719 271.129C520.189 270.129 519.929 269.599 519.959 269.579C519.989 269.559 520.329 270.049 520.919 271.009C521.569 272.069 522.419 273.479 523.479 275.239C525.729 279.049 528.869 284.369 532.719 290.899C540.479 304.279 551.079 322.579 562.799 342.809C562.999 343.159 563.199 343.509 563.389 343.829L562.679 343.559C584.619 336.319 604.419 329.769 618.889 324.999C625.999 322.709 631.779 320.849 635.929 319.509C637.859 318.909 639.409 318.439 640.579 318.079C641.649 317.759 642.209 317.619 642.229 317.659L642.239 317.649Z" fill="#E0E0E0"/>
<path d="M487.56 351.989C487.4 351.699 501.04 344.019 518.01 334.829C534.99 325.639 548.88 318.429 549.04 318.719C549.2 319.009 535.56 326.689 518.58 335.879C501.61 345.059 487.71 352.279 487.56 351.989Z" fill="#E0E0E0"/>
<path d="M590.09 333.664C590.41 333.574 595.08 348.354 600.53 366.684C605.98 385.024 610.15 399.954 609.83 400.054C609.51 400.144 604.84 385.364 599.39 367.024C593.94 348.694 589.78 333.754 590.09 333.664Z" fill="#E0E0E0"/>
<path d="M140.055 181.867L68 213.242L89.1472 261.808L161.203 230.432L140.055 181.867Z" fill="white"/>
<path d="M140.532 182.3C140.532 182.3 140.422 182.63 140.142 183.24C139.832 183.9 139.412 184.78 138.902 185.87C137.762 188.21 136.172 191.48 134.222 195.5C130.172 203.67 124.632 214.84 118.492 227.22L118.362 227.48L118.082 227.4C117.862 227.34 117.632 227.28 117.402 227.22C103.912 223.55 91.7024 220.22 82.7724 217.79C78.4024 216.57 74.8524 215.57 72.3024 214.85C71.1224 214.5 70.1824 214.23 69.4624 214.02C68.8124 213.82 68.4824 213.71 68.4824 213.68C68.4824 213.66 68.8424 213.73 69.4924 213.88C70.2124 214.06 71.1724 214.29 72.3624 214.58C74.9224 215.24 78.5024 216.16 82.8924 217.3C91.8324 219.68 104.062 222.93 117.572 226.53C117.802 226.59 118.042 226.66 118.252 226.71L117.842 226.89C124.052 214.55 129.662 203.4 133.762 195.26C135.802 191.29 137.462 188.05 138.652 185.73C139.212 184.66 139.672 183.81 140.012 183.16C140.332 182.58 140.502 182.27 140.532 182.29V182.3Z" fill="#E0E0E0"/>
<path d="M89.6234 262.252C89.4334 262.192 91.9534 253.182 95.2534 242.112C98.5534 231.042 101.373 222.122 101.563 222.172C101.753 222.232 99.2334 231.242 95.9334 242.312C92.6334 253.372 89.8134 262.302 89.6234 262.242V262.252Z" fill="#E0E0E0"/>
<path d="M125.253 211.13C125.343 210.96 133.583 215.23 143.633 220.68C153.693 226.13 161.773 230.69 161.683 230.86C161.593 231.03 153.363 226.76 143.293 221.31C133.233 215.86 125.153 211.3 125.243 211.13H125.253Z" fill="#E0E0E0"/>
<path d="M553.67 176.031H140.22C132.174 176.031 125.65 182.554 125.65 190.601V454.141C125.65 462.188 132.174 468.711 140.22 468.711H553.67C561.717 468.711 568.24 462.188 568.24 454.141V190.601C568.24 182.554 561.717 176.031 553.67 176.031Z" fill="#263238"/>
<path d="M107.141 447.062H586.651V454.872C586.651 464.692 578.681 472.673 568.851 472.673H124.941C115.121 472.673 107.141 464.702 107.141 454.872V447.062Z" fill="#263238"/>
<path d="M555.121 187.664H137.531V434.824H555.121V187.664Z" fill="#455A64"/>
<path d="M303.311 447.062L309.261 456.522H392.991L398.521 447.062H303.311Z" fill="#455A64"/>
<path d="M149.401 196.023H544.101C545.911 196.023 547.371 197.493 547.371 199.293V430.753C547.371 432.563 545.901 434.023 544.101 434.023H149.401C147.591 434.023 146.131 432.553 146.131 430.753V199.293C146.131 197.483 147.601 196.023 149.401 196.023Z" fill="#EBEBEB"/>
<path d="M547.381 213.461H146.131V434.031H547.381V213.461Z" fill="#EBEBEB"/>
<path d="M179.041 205.216C179.041 206.986 177.611 208.416 175.841 208.416C174.071 208.416 172.641 206.986 172.641 205.216C172.641 203.446 174.071 202.016 175.841 202.016C177.611 202.016 179.041 203.446 179.041 205.216Z" fill="#455A64"/>
<path d="M159.621 205.216C159.621 206.986 158.191 208.416 156.421 208.416C154.651 208.416 153.221 206.986 153.221 205.216C153.221 203.446 154.661 202.016 156.421 202.016C158.181 202.016 159.621 203.446 159.621 205.216Z" fill="#455A64"/>
<path d="M168.941 205.216C168.941 206.986 167.511 208.416 165.741 208.416C163.971 208.416 162.541 206.986 162.541 205.216C162.541 203.446 163.971 202.016 165.741 202.016C167.511 202.016 168.941 203.446 168.941 205.216Z" fill="#455A64"/>
<path d="M564.43 447.063C564.43 447.223 466.2 447.353 345.05 447.353C223.9 447.353 125.65 447.223 125.65 447.063C125.65 446.903 223.86 446.773 345.05 446.773C466.24 446.773 564.43 446.903 564.43 447.063Z" fill="#455A64"/>
<path d="M125.56 450.283C125.56 450.283 125.44 450.223 125.22 450.082C124.99 449.932 124.67 449.712 124.24 449.432C123.81 449.142 123.27 448.772 122.64 448.342C122.01 447.902 121.25 447.422 120.47 446.772C119.67 446.142 118.78 445.443 117.8 444.663C116.83 443.872 115.85 442.922 114.74 441.932C112.56 439.922 110.21 437.422 107.77 434.432C102.94 428.443 98.0096 420.212 94.5996 409.772C91.2596 399.352 89.4096 386.772 90.4496 373.003C90.9796 366.133 92.0896 358.952 94.1796 351.712C96.2396 344.472 99.1596 337.113 103.42 330.173C104.47 328.433 105.65 326.752 106.88 325.082C108.18 323.472 109.48 321.853 110.8 320.223C112.19 318.652 113.64 317.122 115.08 315.542C116.55 314.003 118.14 312.562 119.68 311.042C126.02 305.173 133.16 299.812 140.81 294.872C156.13 284.962 173.44 276.762 191.26 268.223C209.03 259.523 227.75 251.173 246.95 242.732C323.84 209.052 394.22 180.372 445.48 160.452C471.1 150.452 492 142.822 506.47 137.592C513.71 135.012 519.37 133.092 523.19 131.772C525.1 131.122 526.56 130.623 527.55 130.293C528.04 130.133 528.41 130.013 528.67 129.923C528.92 129.843 529.05 129.812 529.05 129.812C529.05 129.812 528.93 129.873 528.69 129.973C528.44 130.073 528.07 130.203 527.59 130.393C526.61 130.753 525.16 131.283 523.26 131.973C519.45 133.353 513.83 135.373 506.61 137.983C492.19 143.323 471.33 151.053 445.75 161.143C394.57 181.233 324.25 210.023 247.37 243.693C228.17 252.133 209.47 260.462 191.7 269.152C173.87 277.682 156.58 285.842 141.33 295.682C133.71 300.592 126.61 305.902 120.3 311.723C118.77 313.223 117.18 314.652 115.72 316.173C114.29 317.732 112.85 319.252 111.47 320.802C110.16 322.422 108.86 324.022 107.58 325.612C106.37 327.252 105.2 328.902 104.16 330.622C99.9396 337.462 97.0296 344.753 94.9596 351.923C92.8596 359.103 91.7396 366.232 91.1896 373.052C90.1096 386.723 91.8896 399.223 95.1596 409.592C98.4896 419.973 103.34 428.183 108.09 434.173C110.49 437.163 112.81 439.673 114.95 441.693C116.04 442.682 117.01 443.652 117.97 444.443C118.94 445.233 119.81 445.942 120.6 446.582C121.37 447.242 122.11 447.742 122.73 448.182C123.35 448.633 123.88 449.003 124.3 449.312C124.71 449.612 125.03 449.842 125.25 450.003C125.46 450.163 125.56 450.242 125.56 450.253V450.283Z" fill="#263238"/>
<path d="M512.25 96.9031L530.76 112.253L529.05 129.843L544.22 121.403L560.38 132.883L620.61 94.2031L512.25 96.9031Z" fill="#407BFF"/>
<g opacity="0.5">
<path d="M530.761 112.252L618.981 94.2422L539.751 118.222L529.051 129.842L530.761 112.252Z" fill="black"/>
</g>
<g opacity="0.8">
<path d="M539.751 118.227L544.221 121.407L529.051 129.847L539.751 118.227Z" fill="black"/>
</g>
<path d="M262.325 328.045L166.127 337.172L172.279 402.011L268.477 392.883L262.325 328.045Z" fill="white"/>
<path d="M268.479 392.898C268.479 392.898 268.409 392.478 268.329 391.698C268.239 390.878 268.119 389.738 267.959 388.258C267.649 385.218 267.199 380.818 266.629 375.198C265.509 363.918 263.919 347.758 261.969 328.088L262.359 328.408C235.799 330.948 202.389 334.158 166.179 337.618C166.079 337.718 166.939 336.698 166.579 337.138V337.158V337.188V337.258L166.599 337.398L166.629 337.668L166.679 338.208L166.779 339.288L166.979 341.448C167.119 342.888 167.249 344.318 167.389 345.738C167.659 348.588 167.929 351.418 168.189 354.228C168.719 359.848 169.239 365.378 169.759 370.808C170.779 381.658 171.759 392.098 172.689 401.978L172.239 401.608C200.519 399.008 224.519 396.798 241.489 395.238C249.959 394.478 256.679 393.878 261.319 393.468C263.599 393.278 265.369 393.118 266.609 393.018C267.189 392.978 267.639 392.938 267.989 392.908C268.299 392.888 268.459 392.878 268.469 392.888C268.469 392.888 268.329 392.918 268.039 392.958C267.709 392.998 267.269 393.048 266.709 393.108C265.489 393.238 263.749 393.418 261.509 393.648C256.889 394.108 250.209 394.788 241.789 395.628C224.759 397.298 200.679 399.648 172.309 402.418L171.899 402.458L171.859 402.048C170.909 392.168 169.909 381.738 168.879 370.888C168.359 365.458 167.839 359.928 167.299 354.308C167.029 351.498 166.759 348.668 166.489 345.818C166.349 344.388 166.219 342.958 166.079 341.528L165.879 339.368L165.779 338.288L165.729 337.748L165.699 337.478V337.338L165.679 337.268V337.238V337.218C165.319 337.648 166.169 336.608 166.089 336.718C202.309 333.318 235.729 330.178 262.289 327.678L262.649 327.648L262.679 328.008C264.479 347.788 265.949 364.038 266.979 375.378C267.469 380.968 267.859 385.348 268.119 388.378C268.239 389.828 268.329 390.958 268.399 391.758C268.459 392.518 268.469 392.888 268.469 392.888L268.479 392.898Z" fill="#455A64"/>
<path d="M262.319 328.056C262.319 328.056 262.089 328.406 261.579 329.016C261.009 329.686 260.249 330.566 259.309 331.656C257.249 333.996 254.369 337.266 250.829 341.286C243.529 349.446 233.519 360.636 222.369 373.116L222.119 373.396L221.799 373.196C220.989 372.676 220.119 372.126 219.239 371.566C204.569 362.156 191.289 353.636 181.579 347.416C176.849 344.326 172.989 341.816 170.219 340.006C168.949 339.156 167.929 338.476 167.159 337.956C166.469 337.476 166.109 337.216 166.119 337.186C166.139 337.156 166.529 337.376 167.249 337.796C168.049 338.276 169.089 338.916 170.399 339.706C173.199 341.446 177.109 343.886 181.909 346.876C191.649 353.046 204.979 361.486 219.709 370.806C220.589 371.366 221.459 371.926 222.269 372.436L221.699 372.516C232.929 360.116 243.009 348.986 250.369 340.876C253.999 336.936 256.949 333.726 259.059 331.426C260.049 330.376 260.839 329.536 261.449 328.896C261.999 328.326 262.299 328.036 262.329 328.056H262.319Z" fill="#455A64"/>
<path d="M465.678 234.386L452.682 280.375L520.919 299.659L533.915 253.67L465.678 234.386Z" fill="white"/>
<path d="M520.93 299.671C520.93 299.671 521 299.371 521.14 298.811C521.3 298.231 521.52 297.411 521.8 296.361C522.39 294.201 523.26 291.071 524.36 287.071C526.59 279.061 529.78 267.581 533.67 253.611L533.85 253.931C515.01 248.621 491.3 241.951 465.61 234.711C465.52 234.761 466.37 234.281 466.01 234.491V234.531V234.581L465.97 234.681L465.92 234.871L465.81 235.251L465.59 236.021L465.16 237.551C464.87 238.571 464.59 239.581 464.3 240.591C463.73 242.611 463.16 244.621 462.6 246.611C461.47 250.601 460.36 254.521 459.27 258.371C457.09 266.071 454.99 273.461 453 280.471L452.79 280.101C472.83 285.831 489.83 290.691 501.85 294.121C507.85 295.851 512.6 297.221 515.89 298.171C517.5 298.641 518.75 299.011 519.63 299.271C520.04 299.391 520.36 299.491 520.6 299.561C520.82 299.631 520.93 299.671 520.94 299.671C520.94 299.671 520.84 299.651 520.63 299.601C520.39 299.541 520.08 299.461 519.68 299.351C518.81 299.111 517.57 298.781 515.98 298.341C512.7 297.431 507.95 296.121 501.96 294.461C489.87 291.081 472.77 286.301 452.63 280.671L452.34 280.591L452.42 280.301C454.39 273.291 456.48 265.891 458.65 258.191C459.74 254.341 460.84 250.421 461.97 246.431C462.53 244.441 463.1 242.431 463.67 240.411C463.96 239.401 464.24 238.381 464.53 237.371L464.96 235.841L465.18 235.071L465.29 234.691L465.34 234.501L465.37 234.401V234.351L465.39 234.331C465.03 234.521 465.89 234.031 465.8 234.091C491.48 241.371 515.18 248.101 534.01 253.441L534.26 253.511L534.19 253.761C530.17 267.771 526.87 279.271 524.56 287.311C523.41 291.261 522.51 294.361 521.89 296.501C521.59 297.531 521.35 298.321 521.18 298.891C521.02 299.421 520.93 299.681 520.93 299.681V299.671Z" fill="#455A64"/>
<path d="M533.931 253.681C533.931 253.681 533.681 253.861 533.171 254.141C532.601 254.451 531.851 254.851 530.921 255.351C528.891 256.411 526.051 257.881 522.561 259.691C515.401 263.341 505.581 268.341 494.651 273.911L494.401 274.041L494.231 273.811C493.811 273.241 493.361 272.631 492.911 272.011C485.371 261.681 478.551 252.331 473.561 245.491C471.141 242.121 469.171 239.381 467.761 237.411C467.121 236.491 466.601 235.751 466.211 235.191C465.861 234.681 465.691 234.401 465.711 234.391C465.731 234.381 465.941 234.631 466.321 235.111C466.741 235.651 467.281 236.361 467.971 237.251C469.421 239.191 471.451 241.891 473.941 245.211C478.971 252.021 485.851 261.331 493.451 271.611C493.901 272.231 494.351 272.841 494.771 273.411L494.361 273.311C505.341 267.811 515.181 262.871 522.371 259.271C525.901 257.541 528.771 256.121 530.821 255.111C531.781 254.651 532.541 254.291 533.131 254.011C533.661 253.771 533.941 253.651 533.951 253.671L533.931 253.681Z" fill="#455A64"/>
<path d="M174.06 223.422C174.06 223.422 178.76 219.612 186.06 231.042C193.35 242.472 196.34 249.182 196.34 249.182C196.34 249.182 198.2 251.542 199.77 249.732C201.34 247.922 203.26 243.022 206.28 243.572C209.41 244.152 210.75 247.452 210.65 252.512C210.55 257.572 210.75 268.662 210.77 269.662C210.79 270.642 211.49 272.032 212.76 270.972C214.03 269.912 221 260.452 225.29 264.022C229.58 267.602 226.99 281.652 226.74 283.192C226.49 284.732 226.84 285.342 227.59 285.652C228.34 285.952 230.38 282.552 232.48 279.942C234.57 277.332 237.46 274.672 239.76 276.942C242.06 279.212 243.72 289.402 235.57 307.012L231.26 314.922L222.22 315.292C202.82 314.912 194.38 308.962 193.35 305.892C192.32 302.832 195.97 301.402 199.23 300.662C202.49 299.922 206.45 299.572 206.5 298.772C206.56 297.962 206.16 297.372 204.66 296.932C203.16 296.482 189.4 292.662 188.06 287.232C186.72 281.812 198.28 279.682 199.79 279.012C201.3 278.342 200.36 277.102 199.49 276.652C198.6 276.192 188.71 271.162 184.12 269.032C179.53 266.902 177.14 264.252 177.99 261.182C178.81 258.222 184.06 258.642 186.38 258.022C188.7 257.402 187.39 254.692 187.39 254.692C187.39 254.692 182.67 249.062 175.59 237.502C168.51 225.942 174.14 223.342 174.14 223.342" fill="#407BFF"/>
<path d="M180.609 233.641C180.609 233.641 180.649 233.731 180.749 233.891C180.849 234.061 180.989 234.301 181.169 234.611C181.549 235.251 182.109 236.171 182.819 237.361C184.259 239.741 186.359 243.181 188.979 247.411C194.209 255.881 201.539 267.521 209.679 280.351C217.819 293.181 225.179 304.811 230.449 313.251C233.079 317.461 235.209 320.881 236.689 323.251C237.419 324.421 237.989 325.331 238.389 325.971C238.579 326.271 238.729 326.501 238.839 326.671C238.939 326.831 238.999 326.901 238.999 326.901C238.999 326.901 238.959 326.811 238.859 326.651C238.759 326.481 238.619 326.241 238.439 325.931C238.059 325.291 237.499 324.371 236.789 323.181C235.349 320.801 233.249 317.361 230.629 313.131C225.399 304.661 218.069 293.021 209.929 280.181C201.789 267.351 194.439 255.731 189.159 247.291C186.529 243.081 184.399 239.661 182.919 237.291C182.189 236.121 181.619 235.211 181.219 234.571C181.029 234.271 180.879 234.041 180.769 233.871C180.669 233.711 180.609 233.641 180.609 233.641Z" fill="#263238"/>
<path d="M203.88 250.531C203.88 250.531 203.8 250.751 203.71 251.161C203.62 251.571 203.5 252.161 203.36 252.901C203.09 254.371 202.77 256.421 202.46 258.681C202.17 260.911 201.9 262.921 201.69 264.471C201.6 265.161 201.52 265.741 201.45 266.221C201.39 266.631 201.37 266.861 201.39 266.871C201.41 266.871 201.47 266.651 201.57 266.241C201.66 265.831 201.78 265.241 201.91 264.501C202.17 263.021 202.46 260.981 202.77 258.721C203.08 256.501 203.36 254.491 203.58 252.941C203.68 252.251 203.76 251.671 203.83 251.191C203.89 250.781 203.91 250.541 203.89 250.541L203.88 250.531Z" fill="#263238"/>
<path d="M200.59 267.111C200.61 267.031 196.42 266.181 191.25 265.221C186.07 264.261 181.87 263.551 181.85 263.631C181.83 263.711 186.02 264.561 191.19 265.521C196.36 266.481 200.57 267.191 200.59 267.111Z" fill="#263238"/>
<path d="M213.969 286.25C213.969 286.25 213.729 286.25 213.299 286.28C212.809 286.33 212.209 286.39 211.499 286.46C209.979 286.61 207.879 286.8 205.559 286.94C203.239 287.08 201.129 287.13 199.599 287.16C198.889 287.17 198.279 287.19 197.789 287.2C197.359 287.21 197.129 287.23 197.129 287.25C197.129 287.27 197.369 287.29 197.789 287.32C198.219 287.34 198.839 287.37 199.599 287.38C201.129 287.41 203.239 287.38 205.569 287.25C207.899 287.12 209.999 286.88 211.519 286.68C212.279 286.58 212.889 286.48 213.309 286.41C213.729 286.34 213.959 286.28 213.959 286.26L213.969 286.25Z" fill="#263238"/>
<path d="M220.25 271.914C220.25 271.914 220.12 272.094 219.94 272.444C219.76 272.794 219.51 273.314 219.21 273.944C218.6 275.214 217.78 276.984 216.89 278.944C216 280.904 215.21 282.684 214.65 283.984C214.37 284.634 214.15 285.164 214 285.524C213.85 285.894 213.78 286.094 213.8 286.104C213.82 286.104 213.93 285.924 214.11 285.574C214.29 285.224 214.54 284.714 214.84 284.074C215.45 282.804 216.27 281.034 217.16 279.074C218.05 277.114 218.84 275.334 219.39 274.034C219.67 273.384 219.89 272.854 220.04 272.494C220.19 272.124 220.26 271.924 220.24 271.914H220.25Z" fill="#263238"/>
<path d="M234.21 287.312C234.21 287.312 234.05 287.553 233.83 288.003C233.58 288.513 233.26 289.153 232.88 289.923C232.09 291.553 231.02 293.812 229.86 296.312C228.7 298.812 227.66 301.093 226.92 302.743C226.58 303.533 226.29 304.182 226.06 304.702C225.86 305.172 225.76 305.433 225.78 305.443C225.8 305.443 225.94 305.203 226.16 304.753C226.41 304.243 226.73 303.603 227.11 302.833C227.9 301.203 228.97 298.943 230.13 296.443C231.29 293.943 232.33 291.662 233.07 290.012C233.41 289.222 233.7 288.573 233.93 288.053C234.13 287.583 234.23 287.322 234.21 287.312Z" fill="#263238"/>
<path d="M225.87 304.939C225.87 304.939 225.57 304.929 225.03 304.959C224.43 304.999 223.66 305.039 222.74 305.099C220.81 305.219 218.14 305.379 215.19 305.469C212.24 305.569 209.56 305.579 207.63 305.579C206.71 305.579 205.94 305.579 205.34 305.579C204.8 305.579 204.5 305.599 204.5 305.619C204.5 305.639 204.8 305.669 205.34 305.699C205.88 305.729 206.66 305.769 207.63 305.789C209.57 305.849 212.25 305.859 215.21 305.769C218.17 305.679 220.84 305.489 222.77 305.309C223.74 305.219 224.52 305.139 225.05 305.069C225.59 304.999 225.88 304.959 225.88 304.939H225.87Z" fill="#263238"/>
<path d="M523.769 313.62C520.409 312.07 516.409 312.31 512.979 313.7C509.549 315.09 506.639 317.54 504.179 320.31C499.419 325.66 496.769 333.46 495.439 340.49C503.329 341.46 511.039 336.4 514.789 333.59C520.719 329.15 528.729 317.51 523.769 313.62Z" fill="#407BFF"/>
<path d="M481.17 343.252C484.94 341.552 487.4 337.532 487.69 333.402C487.98 329.282 486.26 325.152 483.49 322.092C482.21 320.672 480.51 319.382 478.6 319.482C476.82 319.572 475.27 320.912 474.52 322.542C473.77 324.162 473.71 326.022 473.89 327.802C474.49 333.902 476.19 339.692 481.17 343.252Z" fill="#407BFF"/>
<path d="M470.811 363.153C470.811 363.153 471.211 362.783 471.801 362.023C472.401 361.263 473.241 360.153 474.241 358.743C476.211 355.923 478.911 351.903 480.721 346.883C482.531 341.853 482.691 336.853 481.921 333.443C481.561 331.733 481.051 330.403 480.621 329.533C480.191 328.663 479.881 328.223 479.841 328.243C479.691 328.313 480.811 330.183 481.371 333.543C481.971 336.883 481.731 341.703 479.971 346.603C478.201 351.503 475.621 355.523 473.771 358.413C471.891 361.293 470.711 363.073 470.811 363.143V363.153Z" fill="#263238"/>
<path d="M516.65 321.789C516.65 321.789 515.91 322.269 514.65 323.259C513.4 324.249 511.61 325.699 509.41 327.529C505.03 331.179 499.05 336.319 492.59 342.149C486.13 347.989 480.42 353.419 476.35 357.409C474.31 359.409 472.68 361.039 471.58 362.189C470.47 363.339 469.88 363.989 469.92 364.029C469.96 364.069 470.63 363.489 471.8 362.419C473.07 361.239 474.74 359.689 476.75 357.829C480.92 353.939 486.69 348.589 493.14 342.749C499.59 336.919 505.5 331.719 509.79 327.969C511.85 326.159 513.56 324.659 514.86 323.509C516.05 322.449 516.69 321.839 516.66 321.799L516.65 321.789Z" fill="#263238"/>
<path d="M485.711 354.041C492.931 349.161 502.571 348.081 510.691 351.251C512.761 352.061 515.001 353.541 515.041 355.761C515.081 357.981 512.871 359.541 510.811 360.371C502.221 363.811 491.631 361.381 485.391 354.551" fill="#407BFF"/>
<path d="M505.331 355.28C505.351 355.23 504.891 355 504.041 354.64C503.621 354.45 503.091 354.24 502.451 354.06C501.821 353.87 501.111 353.61 500.291 353.46C498.671 353.06 496.701 352.81 494.501 352.73C492.301 352.7 489.871 352.88 487.371 353.39C484.881 353.93 482.591 354.75 480.581 355.67C478.601 356.63 476.891 357.66 475.571 358.68C474.881 359.15 474.341 359.67 473.831 360.1C473.321 360.52 472.931 360.93 472.611 361.27C471.981 361.95 471.651 362.34 471.691 362.38C471.801 362.49 473.211 361 475.891 359.14C477.221 358.2 478.921 357.24 480.871 356.34C482.841 355.48 485.091 354.7 487.511 354.17C489.941 353.67 492.311 353.48 494.461 353.47C496.611 353.5 498.551 353.69 500.151 354.01C503.361 354.62 505.251 355.42 505.301 355.27L505.331 355.28Z" fill="#263238"/>
<path d="M479.07 136.305H226.33V413.435H479.07V136.305Z" fill="#FAFAFA"/>
<path d="M479.061 413.421C479.061 411.451 478.971 301.901 478.831 136.291L479.061 136.521C404.951 136.521 318.391 136.541 226.351 136.551H226.321L226.581 136.291C226.571 238.261 226.551 333.501 226.541 413.421L226.321 413.201C378.301 413.331 477.181 413.421 479.061 413.421C477.191 413.421 378.311 413.511 226.321 413.641H226.101V413.421C226.091 333.501 226.081 238.271 226.061 136.291V136.031H226.351C318.391 136.041 404.951 136.051 479.061 136.061H479.291V136.291C479.151 301.901 479.061 411.451 479.061 413.421Z" fill="#263238"/>
<path d="M238.21 147.077C238.21 148.257 237.25 149.217 236.07 149.217C234.89 149.217 233.93 148.257 233.93 147.077C233.93 145.897 234.89 144.938 236.07 144.938C237.25 144.938 238.21 145.897 238.21 147.077Z" fill="#E0E0E0"/>
<path d="M243.201 149.217C244.382 149.217 245.341 148.259 245.341 147.077C245.341 145.896 244.382 144.938 243.201 144.938C242.019 144.938 241.061 145.896 241.061 147.077C241.061 148.259 242.019 149.217 243.201 149.217Z" fill="#E0E0E0"/>
<path d="M252.481 147.077C252.481 148.257 251.521 149.217 250.341 149.217C249.161 149.217 248.201 148.257 248.201 147.077C248.201 145.897 249.161 144.938 250.341 144.938C251.521 144.938 252.481 145.897 252.481 147.077Z" fill="#E0E0E0"/>
<path d="M503.689 215.539L509.609 194.792C509.609 194.792 511.744 186.363 512.256 184.397C512.925 181.795 511.046 180.979 509.936 182.75C509.509 183.429 504.842 192.01 504.842 192.01C504.842 192.01 508.57 177.961 508.713 177.449C509.922 172.868 507.005 173.339 506.151 174.972C505.269 176.66 499.989 190.487 499.989 190.487C504.956 172.425 503.404 170.834 502.01 170.543C500.615 170.252 496.246 186.778 496.246 186.778C496.246 186.778 494.666 183.955 491.763 182.003C487.281 179 479.795 182.003 479.439 184.051C479.083 186.1 481.745 186.681 481.745 186.681C487.366 183.152 493.13 187.429 492.532 192.646C491.948 197.864 485.146 197.145 484.306 193.422C482.456 185.269 479.567 187.927 479.567 187.927L482.456 205.892L479.396 214.93" fill="#FFBE9D"/>
<path d="M294.207 301.026L419.738 300.188L423.189 385.537L293.201 384.252L294.207 301.026Z" fill="#455A64"/>
<path d="M294.209 301.026L357.973 249.5L419.74 300.187" fill="#263238"/>
<path d="M293.201 384.251C293.048 384.097 303.107 373.143 315.653 359.759C328.213 346.375 338.524 335.645 338.678 335.799C338.831 335.952 328.786 346.906 316.212 360.29C303.652 373.674 293.341 384.39 293.188 384.251H293.201Z" fill="#263238"/>
<path d="M423.191 385.534C423.037 385.674 413.243 374.916 401.354 361.517C389.45 348.105 379.936 337.124 380.09 336.97C380.243 336.83 390.023 347.588 401.941 361.001C413.844 374.413 423.358 385.394 423.205 385.534H423.191Z" fill="#263238"/>
<path d="M419.74 300.188L356.674 350.512L294.209 301.026" fill="#263238"/>
<path d="M210.323 204.851H210.742L209.065 199.22L203.687 177.761C203.17 175.819 204.259 173.807 206.215 173.08L210.085 172.954L223.344 166.751C225.845 165.829 228.611 167.394 228.932 169.951C229.421 173.89 232.104 184.495 234.954 180.778C235.024 180.694 235.094 180.625 235.164 180.541C239.173 175.022 244.175 172.032 246.229 172.116C248.241 172.2 248.981 174.631 247.626 176.084C247.43 176.335 247.193 176.559 246.871 176.741C246.732 176.81 246.578 176.936 246.438 177.034C244.888 178.291 243.029 180.513 241.674 182.273C240.375 183.95 239.383 185.864 238.754 187.862C238.042 190.083 237.525 192.039 237.12 193.688L238.153 204.641" fill="#FFBE9D"/>
<path d="M245.686 107.631C245.686 107.631 230.192 104.669 207.936 84.4384C185.693 64.2361 174.726 36.8526 172.085 37.0621C169.431 37.2717 157.709 32.2281 137.046 80.75C116.382 129.272 125.38 140.155 129.753 139.946C134.126 139.736 163.647 130.599 182.298 132.178C200.936 133.771 225.106 142.768 225.106 142.768L245.7 107.631H245.686Z" fill="#455A64"/>
<path d="M279.133 132.813L274.159 142.942L271.937 147.483C268.892 153.714 261.487 156.453 255.116 153.742L221.795 143.18L239.762 98.7656L273.223 115.405C279.65 118.605 282.29 126.373 279.133 132.827V132.813Z" fill="#263238"/>
<path d="M260.565 149.346L250.631 170.246L245.336 168.933L211.791 197.84L201.662 179.328C201.662 179.328 221.711 170.009 225.259 162.674C228.808 155.325 224.421 153.816 224.421 153.816L233.67 142.695L260.579 149.36L260.565 149.346Z" fill="#263238"/>
<path d="M138.85 81.573C127.869 107.853 123.649 131.115 129.419 133.532C135.189 135.949 148.783 116.599 159.765 90.3189C170.746 64.0392 174.965 40.7772 169.195 38.3602C163.425 35.9431 149.831 55.2932 138.85 81.573Z" fill="#263238"/>
<path d="M282.375 147.16L273.35 144.604L278.589 133.93L285.421 137.898L282.375 147.16Z" fill="#455A64"/>
<path d="M230.484 146.492L254.962 161.134L257.784 155.182L230.484 146.492Z" fill="#455A64"/>
<path d="M278.589 133.93L273.35 144.604L275.208 145.135L279.413 134.405L278.589 133.93Z" fill="#455A64"/>
<path d="M272.497 136.535C272.371 136.829 267.859 135.222 262.424 132.945C256.975 130.667 252.658 128.586 252.784 128.292C252.91 127.999 257.422 129.606 262.857 131.883C268.306 134.16 272.609 136.242 272.497 136.535Z" fill="#455A64"/>
<path d="M275.066 130.196C274.926 130.489 270.847 128.896 265.943 126.647C261.025 124.398 257.155 122.344 257.295 122.05C257.42 121.757 261.514 123.35 266.418 125.599C271.322 127.848 275.206 129.902 275.066 130.196Z" fill="#455A64"/>
<path d="M269.214 143.19C269.172 143.344 268.096 143.134 266.392 142.659C265.539 142.422 264.519 142.114 263.402 141.765C262.284 141.402 261.124 140.857 259.881 140.326C254.921 138.188 251.121 136.079 251.233 135.813C251.373 135.492 255.41 137.155 260.328 139.278C261.558 139.795 262.703 140.368 263.779 140.787C264.855 141.192 265.833 141.569 266.643 141.891C268.264 142.561 269.256 143.05 269.214 143.204V143.19Z" fill="#455A64"/>
<path d="M162.573 75.1287C162.573 75.1287 148.951 67.2071 142.147 85.4953C135.343 103.784 149.496 106.354 149.496 106.354C155 97.2591 159.387 86.8925 162.559 75.1287H162.573Z" fill="#455A64"/>
<path d="M176.192 53.1765C176.276 53.1765 176.122 54.4199 175.759 56.6413C175.396 58.8628 174.893 62.0901 174.138 66.0439C173.621 67.9999 173.062 70.1375 172.476 72.4288C172.168 73.5744 171.861 74.762 171.539 75.9774C171.372 76.5922 171.218 77.2069 171.051 77.8356C170.869 78.4643 170.631 79.0651 170.408 79.7078C169.514 82.2226 168.578 84.8631 167.614 87.5875C167.376 88.2721 167.125 88.9567 166.873 89.6552C166.636 90.3538 166.286 91.0104 165.993 91.709C165.378 93.0782 164.75 94.4613 164.121 95.8724C163.492 97.2695 162.863 98.6666 162.249 100.022C161.927 100.692 161.662 101.391 161.299 102.034C160.935 102.676 160.586 103.319 160.237 103.962C158.826 106.504 157.471 108.949 156.171 111.283C155.836 111.855 155.543 112.456 155.193 113.001C154.83 113.546 154.481 114.077 154.131 114.608C153.433 115.656 152.748 116.675 152.092 117.667C150.764 119.637 149.535 121.468 148.403 123.144C145.93 126.316 143.863 128.816 142.438 130.563C140.999 132.295 140.174 133.231 140.118 133.175C140.062 133.133 140.761 132.1 142.088 130.283C143.471 128.439 145.399 125.841 147.775 122.641C148.864 120.951 150.038 119.106 151.309 117.123C151.952 116.131 152.609 115.111 153.293 114.063C153.628 113.532 153.978 113.001 154.327 112.456C154.662 111.911 154.956 111.325 155.277 110.738C156.548 108.405 157.876 105.96 159.245 103.431C159.594 102.802 159.943 102.159 160.293 101.517C160.656 100.874 160.907 100.176 161.229 99.5049C161.844 98.1497 162.458 96.7665 163.087 95.3694C163.716 93.9723 164.344 92.6031 164.945 91.2479C165.238 90.5634 165.588 89.9067 165.825 89.2221C166.077 88.5375 166.328 87.8529 166.566 87.1684C167.558 84.4579 168.508 81.8453 169.416 79.3585C169.639 78.7298 169.891 78.129 170.073 77.5143C170.24 76.8995 170.422 76.2848 170.589 75.6701C170.925 74.4686 171.26 73.295 171.581 72.1493C172.224 69.886 172.825 67.7764 173.37 65.8344C174.194 61.9504 174.865 58.7929 175.34 56.5436C175.829 54.3501 176.122 53.1346 176.206 53.1486L176.192 53.1765Z" fill="#263238"/>
<path d="M256.64 252.881L242.794 200.252L208.174 201.174L218.946 274.621C220.329 290.604 229.731 301.068 245.561 303.611C255.061 305.134 265.344 296.08 272.972 290.226C277.946 286.398 278.84 287.153 283.967 282.486L306.265 266.364L306.81 269.004H306.671L310.457 313.893L356.645 350.163L411.734 306.028L410.476 286.943C410.616 286.929 410.742 286.664 410.462 286.664L409.037 265.022L437.259 297.394C443.756 306.88 454.807 312.189 466.277 311.309C478.67 310.373 489.413 302.381 493.898 290.785L508.442 216.794L476.532 209.934L461.583 263.248L425.928 222.271C405.377 195.488 381.36 197.751 381.36 197.751L337.1 196.969C337.1 196.969 337.03 196.969 337.002 196.969C335.689 197.039 310.96 197.793 294.194 215.704L256.626 252.895L256.64 252.881Z" fill="#407BFF"/>
<path d="M427.732 225.177C427.732 225.177 427.257 224.954 426.306 224.66C425.37 224.353 423.917 224.074 422.031 224.213C420.159 224.367 417.91 224.968 415.479 226.086C413.034 227.175 410.505 228.908 407.557 230.598C404.637 232.247 401.116 234.049 396.981 233.951C394.941 233.881 392.887 233.323 390.89 232.54C388.892 231.758 386.936 230.794 384.868 229.97C380.774 228.293 375.982 227.734 371.26 228.684C366.51 229.592 362.151 232.261 357.694 234.845C355.445 236.131 353.181 237.374 350.806 238.296C348.431 239.218 345.958 239.819 343.513 240.071C338.609 240.602 333.748 239.875 329.57 238.129C325.365 236.41 321.83 233.923 318.603 231.59C315.375 229.257 312.4 227.022 309.494 225.345C306.574 223.669 303.723 222.537 301.125 221.894C298.526 221.279 296.207 221.14 294.335 221.335C290.563 221.741 288.774 223.054 288.732 222.928C288.732 222.928 288.844 222.844 289.068 222.718C289.291 222.593 289.627 222.411 290.074 222.188C290.996 221.81 292.393 221.265 294.307 221.042C296.207 220.804 298.568 220.902 301.223 221.489C303.863 222.104 306.769 223.207 309.745 224.884C312.721 226.561 315.725 228.782 318.952 231.087C322.193 233.378 325.7 235.837 329.822 237.486C333.915 239.163 338.651 239.861 343.443 239.33C345.833 239.079 348.236 238.492 350.555 237.584C352.874 236.69 355.109 235.46 357.345 234.175C361.788 231.604 366.217 228.88 371.134 227.944C375.996 226.98 380.928 227.58 385.12 229.313C389.269 231.003 393.041 233.197 396.995 233.323C400.935 233.448 404.386 231.73 407.292 230.123C410.226 228.475 412.81 226.756 415.311 225.694C417.784 224.591 420.089 224.018 422.003 223.906C423.917 223.794 425.398 224.144 426.334 224.493C427.285 224.842 427.718 225.149 427.718 225.149L427.732 225.177Z" fill="#FAFAFA"/>
<path d="M453.397 251.404C453.397 251.404 453.271 252.117 452.643 253.346C452.014 254.562 450.798 256.266 448.633 257.775C446.509 259.284 443.45 260.569 439.733 260.933C436.031 261.352 431.798 260.905 427.201 260.388C422.633 259.927 417.435 259.354 412.28 261.058C409.723 261.925 407.306 263.378 404.889 264.942C402.458 266.507 399.971 268.24 397.107 269.469C391.435 271.97 384.715 272.906 378.065 271.69C374.739 271.132 371.456 269.944 368.397 268.296C365.323 266.647 362.473 264.607 359.511 262.693C356.549 260.793 353.531 259.005 350.262 258.055C347.007 257.077 343.598 256.965 340.328 257.44C333.762 258.39 327.81 261.03 321.859 262.637C318.897 263.475 315.907 264.062 312.959 264.132C310.025 264.188 307.119 263.769 304.562 262.707C299.407 260.583 295.607 256.965 292.24 253.821C288.873 250.636 285.771 247.786 282.627 245.9C279.512 243.972 276.396 243.105 273.84 242.896C271.269 242.686 269.271 243.147 268 243.594C266.728 244.069 266.128 244.475 266.1 244.433C266.1 244.433 266.672 243.986 267.944 243.455C269.215 242.952 271.241 242.435 273.854 242.603C276.452 242.77 279.652 243.608 282.837 245.536C286.05 247.423 289.208 250.259 292.589 253.43C295.984 256.546 299.77 260.094 304.786 262.134C307.287 263.154 310.081 263.531 312.945 263.475C315.809 263.406 318.743 262.819 321.677 261.981C324.611 261.156 327.587 260.108 330.646 259.13C333.706 258.152 336.878 257.188 340.231 256.727C343.57 256.238 347.104 256.35 350.471 257.356C353.853 258.348 356.926 260.178 359.902 262.078C362.878 264.006 365.728 266.032 368.746 267.653C371.75 269.273 374.949 270.419 378.204 270.978C384.715 272.166 391.295 271.257 396.856 268.84C402.416 266.409 406.775 262.204 412.112 260.472C414.753 259.591 417.435 259.34 419.992 259.34C422.549 259.34 424.98 259.591 427.285 259.857C431.882 260.416 436.073 260.891 439.719 260.514C443.38 260.206 446.384 258.991 448.493 257.538C450.645 256.099 451.874 254.45 452.531 253.276C453.188 252.089 453.369 251.376 453.411 251.404H453.397Z" fill="#FAFAFA"/>
<path d="M493.759 286.962C493.759 286.962 493.214 286.207 491.831 285.383C490.476 284.559 488.101 283.902 485.264 284.405C482.428 284.894 479.425 286.738 476.421 289.127C474.898 290.301 473.319 291.6 471.545 292.76C469.77 293.905 467.745 294.953 465.481 295.372C463.218 295.819 460.955 295.61 458.887 295.191C456.805 294.758 454.863 294.115 453.033 293.486C451.203 292.857 449.484 292.243 447.836 291.81C446.187 291.376 444.622 291.125 443.183 291.027C440.305 290.818 437.958 291.363 436.533 292.089C435.08 292.802 434.437 293.472 434.395 293.402C434.381 293.388 434.535 293.221 434.856 292.927C435.01 292.774 435.22 292.606 435.485 292.424C435.737 292.229 436.044 292.033 436.421 291.838C437.86 290.999 440.263 290.371 443.225 290.51C444.706 290.58 446.313 290.818 447.989 291.223C449.68 291.642 451.426 292.243 453.243 292.857C456.861 294.031 461.024 295.47 465.342 294.66C467.479 294.269 469.407 293.277 471.154 292.159C472.9 291.041 474.479 289.77 476.016 288.596C479.061 286.235 482.191 284.349 485.181 283.902C488.156 283.441 490.615 284.223 491.985 285.145C492.683 285.592 493.116 286.095 493.41 286.417C493.661 286.766 493.787 286.962 493.773 286.976L493.759 286.962Z" fill="#FAFAFA"/>
<path d="M500.773 246.806C500.773 246.806 500.396 247.169 499.571 247.561C498.747 247.952 497.462 248.371 495.813 248.511C494.179 248.65 492.209 248.511 490.099 247.994C487.989 247.505 485.782 246.652 483.477 245.786C481.171 244.934 478.964 244.166 476.896 243.816C474.829 243.467 472.914 243.495 471.364 243.802C468.206 244.389 466.753 245.968 466.683 245.828C466.655 245.8 466.977 245.395 467.717 244.85C468.458 244.305 469.659 243.677 471.266 243.299C472.873 242.922 474.856 242.838 477.008 243.16C479.16 243.481 481.423 244.235 483.728 245.102C486.033 245.968 488.213 246.82 490.253 247.337C492.292 247.854 494.193 248.064 495.771 247.994C498.971 247.868 500.703 246.666 500.759 246.806H500.773Z" fill="#FAFAFA"/>
<path d="M408.143 299.619C408.101 299.703 406.914 298.837 404.483 297.943C402.066 297.076 398.307 296.336 393.697 296.825C389.086 297.23 383.805 299.046 378.287 301.715C372.74 304.327 366.872 307.82 360.04 310.028C356.631 311.117 353.153 311.802 349.758 311.802C346.363 311.802 343.121 311.103 340.173 310.153C337.225 309.203 334.529 308.016 332.028 306.912C329.527 305.808 327.208 304.747 325.057 303.894C320.767 302.134 317.065 301.338 314.494 301.142C313.852 301.1 313.279 301.044 312.776 301.044C312.301 301.058 311.882 301.072 311.519 301.086C310.834 301.1 310.471 301.1 310.471 301.086C310.471 301.058 310.82 301.016 311.505 300.946C311.868 300.918 312.287 300.877 312.776 300.835C313.279 300.835 313.866 300.863 314.508 300.877C317.121 300.988 320.893 301.729 325.238 303.433C327.432 304.258 329.751 305.291 332.266 306.381C334.781 307.471 337.463 308.617 340.369 309.539C343.275 310.461 346.432 311.117 349.744 311.117C353.055 311.117 356.464 310.447 359.803 309.357C366.523 307.178 372.391 303.727 377.979 301.128C383.54 298.474 388.919 296.671 393.627 296.336C398.321 295.903 402.136 296.741 404.566 297.691C406.997 298.683 408.129 299.633 408.129 299.633L408.143 299.619Z" fill="#FAFAFA"/>
<path d="M217.326 263.906C217.326 263.906 217.522 263.724 217.997 263.584C218.458 263.444 219.212 263.389 220.106 263.668C220.987 263.947 222.007 264.548 222.859 265.582C223.711 266.602 224.354 267.957 225.08 269.382C225.779 270.821 226.771 272.26 228.168 273.49C229.551 274.733 231.353 275.669 233.337 276.34C237.347 277.681 242.097 277.765 246.945 276.997C251.807 276.284 256.459 275.292 260.791 275.334C265.136 275.264 269.006 276.577 271.744 278.366C274.538 280.14 276.103 282.459 276.732 284.164C277.374 285.882 277.318 286.93 277.318 286.93C277.221 286.944 277.179 285.924 276.466 284.275C275.768 282.655 274.189 280.461 271.45 278.799C268.754 277.108 265.01 275.893 260.777 275.991C256.529 275.991 251.933 276.983 247.029 277.709C242.153 278.491 237.235 278.394 233.114 276.969C231.06 276.256 229.202 275.25 227.763 273.923C226.31 272.624 225.29 271.059 224.605 269.592C223.907 268.125 223.306 266.798 222.537 265.806C221.769 264.828 220.833 264.213 220.009 263.906C218.304 263.291 217.326 263.975 217.326 263.864V263.906Z" fill="#FAFAFA"/>
<path d="M247.629 221.231C247.545 221.371 246.078 219.611 242.753 218.702C241.118 218.255 239.064 218.06 236.829 218.311C234.593 218.563 232.204 219.317 229.801 220.337C227.398 221.371 225.177 222.544 223.109 223.564C221.055 224.584 219.155 225.423 217.507 225.995C215.858 226.568 214.475 226.876 213.511 227.015C212.547 227.155 212.002 227.155 212.002 227.113C211.988 226.987 214.14 226.778 217.339 225.506C218.946 224.878 220.79 223.997 222.83 222.95C224.855 221.902 227.091 220.7 229.536 219.652C231.981 218.605 234.454 217.85 236.787 217.627C239.106 217.389 241.244 217.655 242.92 218.185C244.611 218.716 245.84 219.485 246.595 220.113C247.349 220.742 247.67 221.189 247.642 221.217L247.629 221.231Z" fill="#FAFAFA"/>
<g opacity="0.3">
<path d="M348.793 343.979C366.732 333.584 387.493 321.388 397.846 303.421C404.468 291.936 407.751 278.203 409.037 265L411.733 306.005L356.645 350.14L348.793 343.979Z" fill="black"/>
</g>
<g opacity="0.2">
<path d="M302.312 208.328C298.079 224.06 289.976 237.612 277.681 248.314C274.719 250.898 271.492 253.301 267.775 254.573C264.059 255.844 259.742 255.858 256.375 253.818L256.64 252.882L284.555 225.233L302.298 208.328H302.312Z" fill="black"/>
</g>
<path d="M260.203 274.864C260.091 274.822 260.538 273.593 260.915 271.553C261.292 269.513 261.488 266.621 260.985 263.491C260.468 260.362 259.35 257.693 258.33 255.877C257.311 254.061 256.486 253.041 256.584 252.971C256.64 252.915 257.618 253.823 258.764 255.626C259.923 257.414 261.153 260.152 261.698 263.38C262.228 266.607 261.935 269.611 261.418 271.665C260.901 273.732 260.272 274.906 260.203 274.878V274.864Z" fill="#263238"/>
<path d="M252.197 267.824C252.016 267.685 254.447 265.142 255.522 261.09C256.668 257.067 255.899 253.63 256.123 253.602C256.207 253.588 256.514 254.398 256.682 255.809C256.85 257.206 256.794 259.19 256.221 261.286C255.634 263.368 254.67 265.1 253.804 266.218C252.938 267.335 252.253 267.88 252.197 267.824Z" fill="#263238"/>
<path d="M304.171 238.945C304.367 238.931 305.512 250.066 306.728 263.814C307.943 277.576 308.768 288.739 308.558 288.753C308.363 288.767 307.217 277.632 306.001 263.884C304.786 250.136 303.962 238.959 304.171 238.945Z" fill="#263238"/>
<path d="M378.761 196.133C378.761 196.133 378.886 196.384 379.054 196.887C379.25 197.39 379.445 198.145 379.669 199.137C380.074 201.107 380.283 204.096 379.529 207.673C378.747 211.194 376.93 215.343 373.438 218.724C370.001 222.133 364.775 224.327 359.201 224.466C353.626 224.578 348.303 222.608 344.713 219.353C341.08 216.126 339.082 212.074 338.146 208.581C337.238 205.046 337.322 202.057 337.643 200.059C337.811 199.067 337.979 198.298 338.146 197.795C338.3 197.292 338.384 197.027 338.412 197.027C338.496 197.055 338.146 198.117 337.923 200.101C337.699 202.071 337.699 205.018 338.649 208.441C339.627 211.836 341.625 215.762 345.16 218.836C348.639 221.952 353.78 223.824 359.187 223.726C364.58 223.586 369.637 221.49 372.976 218.221C376.371 214.98 378.202 210.97 379.026 207.547C379.822 204.068 379.697 201.134 379.375 199.179C379.068 197.209 378.663 196.161 378.747 196.133H378.761Z" fill="#263238"/>
<path d="M459.92 280.316C459.724 280.316 459.403 276.39 459.696 271.542C459.962 266.694 460.73 262.824 460.912 262.852C461.121 262.88 460.688 266.764 460.423 271.584C460.143 276.39 460.143 280.302 459.92 280.316Z" fill="#263238"/>
<path d="M465.538 282.846C465.454 282.874 464.965 281.798 464.35 279.996C463.736 278.193 462.995 275.651 462.408 272.8C461.822 269.95 461.486 267.324 461.347 265.424C461.193 263.524 461.221 262.336 461.319 262.336C461.542 262.322 461.947 267.002 463.135 272.661C464.294 278.319 465.761 282.776 465.566 282.86L465.538 282.846Z" fill="#263238"/>
<path d="M409.036 283.656C408.841 283.656 408.38 275.79 408.016 266.08C407.653 256.356 407.513 248.477 407.723 248.477C407.919 248.477 408.38 256.342 408.743 266.052C409.106 275.762 409.246 283.656 409.036 283.656Z" fill="#263238"/>
<path d="M358.965 222.264C348.487 222.068 339.979 213.756 339.546 203.277C339.224 195.621 338.959 188.593 338.959 188.593C338.959 188.593 322.934 186.889 321.97 171.004C321.006 155.105 321.984 118.458 321.984 118.458C340.007 109.656 361.382 111.291 377.854 122.747L380.299 124.452L379.14 202.76C378.972 213.728 369.933 222.474 358.965 222.264Z" fill="#FFBE9D"/>
<path d="M338.916 188.371C338.916 188.371 349.004 188.706 359.356 181.469C359.356 181.469 355.011 193.149 339.07 192.492L338.902 188.371H338.916Z" fill="#EB996E"/>
<path d="M379.141 141.017C379.406 140.891 389.912 137.259 390.094 148.142C390.276 159.026 379.308 156.972 379.28 156.651C379.252 156.329 379.141 141.017 379.141 141.017Z" fill="#FFBE9D"/>
<path d="M382.535 152.477C382.535 152.477 382.731 152.603 383.052 152.743C383.373 152.882 383.904 152.966 384.477 152.743C385.623 152.296 386.559 150.465 386.573 148.495C386.573 147.503 386.363 146.567 386 145.785C385.651 144.989 385.134 144.444 384.547 144.346C383.974 144.22 383.569 144.569 383.429 144.891C383.29 145.198 383.359 145.408 383.304 145.436C383.276 145.464 383.066 145.254 383.15 144.807C383.192 144.583 383.318 144.332 383.569 144.122C383.82 143.899 384.212 143.787 384.617 143.829C385.455 143.871 386.224 144.639 386.629 145.478C387.076 146.33 387.355 147.392 387.341 148.495C387.313 150.689 386.224 152.757 384.659 153.246C383.89 153.455 383.248 153.246 382.912 152.98C382.577 152.715 382.507 152.477 382.549 152.449L382.535 152.477Z" fill="#EB996E"/>
<path d="M329.585 142.503C329.543 143.704 330.521 144.724 331.779 144.794C333.036 144.864 334.084 143.942 334.126 142.74C334.168 141.539 333.19 140.519 331.932 140.449C330.675 140.379 329.627 141.301 329.585 142.503Z" fill="#263238"/>
<path d="M326.818 140.239C327.097 140.532 328.816 139.261 331.275 139.261C333.72 139.233 335.508 140.49 335.774 140.197C335.899 140.071 335.62 139.526 334.838 138.954C334.069 138.381 332.756 137.836 331.233 137.836C329.71 137.836 328.425 138.409 327.684 138.982C326.93 139.554 326.678 140.099 326.818 140.225V140.239Z" fill="#263238"/>
<path d="M353.085 142.792C353.043 143.993 354.021 145.013 355.279 145.083C356.536 145.153 357.584 144.231 357.626 143.029C357.668 141.828 356.69 140.808 355.432 140.738C354.175 140.668 353.127 141.59 353.085 142.792Z" fill="#263238"/>
<path d="M350.877 140.692C351.156 140.986 352.889 139.714 355.333 139.714C357.778 139.686 359.567 140.944 359.832 140.65C359.958 140.524 359.678 139.98 358.896 139.407C358.128 138.834 356.814 138.289 355.292 138.289C353.769 138.289 352.483 138.862 351.743 139.435C350.988 140.008 350.737 140.552 350.877 140.678V140.692Z" fill="#263238"/>
<path d="M341.992 158.837C341.992 158.697 340.483 158.432 338.025 158.124C337.396 158.054 336.809 157.929 336.697 157.509C336.544 157.062 336.809 156.378 337.116 155.651C337.703 154.142 338.318 152.55 338.961 150.887C341.531 144.111 343.389 138.551 343.11 138.439C342.831 138.341 340.539 143.748 337.969 150.524C337.354 152.2 336.767 153.793 336.194 155.316C335.957 156.029 335.552 156.825 335.873 157.761C336.041 158.222 336.502 158.571 336.907 158.669C337.312 158.795 337.661 158.795 337.969 158.823C340.456 158.962 341.992 158.962 341.992 158.823V158.837Z" fill="#263238"/>
<path d="M349.2 160.532C348.809 160.504 348.795 163.159 346.518 165.045C344.255 166.931 341.418 166.637 341.391 167.015C341.349 167.182 342.019 167.532 343.221 167.56C344.394 167.602 346.099 167.224 347.496 166.065C348.879 164.905 349.48 163.368 349.564 162.278C349.661 161.175 349.368 160.504 349.186 160.532H349.2Z" fill="#263238"/>
<path d="M350.232 131.106C350.47 131.776 352.915 131.455 355.793 131.804C358.671 132.098 360.99 132.936 361.367 132.335C361.535 132.056 361.13 131.427 360.194 130.784C359.272 130.142 357.791 129.527 356.058 129.331C354.34 129.15 352.761 129.415 351.713 129.848C350.665 130.267 350.134 130.798 350.232 131.106Z" fill="#263238"/>
<path d="M327.726 133.157C328.159 133.716 329.836 133.129 331.875 133.115C333.901 133.017 335.62 133.492 336.011 132.905C336.179 132.626 335.913 132.067 335.159 131.536C334.418 131.005 333.189 130.586 331.792 130.628C330.394 130.67 329.193 131.173 328.48 131.746C327.768 132.318 327.53 132.891 327.726 133.157Z" fill="#263238"/>
<path d="M313.865 107.957C313.698 105.987 314.424 103.863 316.031 102.703C317.638 101.544 320.124 101.614 321.438 103.109C320.683 100.454 322.863 97.3805 325.615 97.2128C328.214 97.0451 330.421 99.0151 332.936 99.6997C335.381 100.37 338.008 99.7835 340.369 98.8474C342.73 97.8974 344.923 96.5841 347.312 95.7179C352.286 93.9016 357.972 94.1252 362.792 96.3326C367.612 98.5401 371.482 102.703 373.355 107.663C376.833 106.573 380.787 108.348 382.939 111.296C385.09 114.244 385.635 118.114 385.216 121.746C384.923 124.191 384.224 126.566 383.4 128.885C383.4 129.095 383.414 129.291 383.414 129.5C383.246 138.26 382.254 148.529 378.524 148.599C372.013 148.697 373.564 136.43 373.564 136.43C365.573 133.342 368.549 121.369 366.551 119.553C364.553 117.736 360.375 113.517 343.652 122.068C337.155 125.393 328.521 125.281 323.813 124.219C323.673 124.191 323.533 124.163 323.394 124.135C323.366 124.135 323.324 124.135 323.296 124.121C323.24 124.121 323.212 124.079 323.156 124.065C321.647 123.674 320.208 123.087 318.867 122.249C317.358 121.285 315.975 120 315.332 118.323C314.69 116.647 314.927 114.565 316.24 113.336C315.011 111.785 314.033 109.955 313.865 107.985V107.957Z" fill="#263238"/>
</g>
<defs>
<clipPath id="clip0_4187_4210">
<rect width="611" height="436" fill="white" transform="translate(43 37)"/>
</clipPath>
</defs>
</svg>
